<?xml version="1.0" encoding="UTF-8"?>
<svg version="1.1" xmlns="http://www.w3.org/2000/svg" width="1147" height="639">
<path d="M0 0 C1.57394531 1.12728516 1.57394531 1.12728516 3.1796875 2.27734375 C39.30648629 28.96965465 63.96556719 68.59747417 71.25 112.9375 C71.51944987 114.95583202 71.77044829 116.97674189 72 119 C72.11085938 119.95648438 72.22171875 120.91296875 72.3359375 121.8984375 C76.81252647 167.02729384 62.79749131 211.37490464 34.3046875 246.4296875 C18.35741752 265.62370705 -0.36462257 279.77535481 -22 292 C-23.33374056 292.76100549 -24.66709693 293.52268484 -26 294.28515625 C-26.99 294.85105469 -27.98 295.41695313 -29 296 C-28.42894531 296.77859375 -27.85789062 297.5571875 -27.26953125 298.359375 C27.09633267 373.11386407 61.27100846 461.77399676 73 605 C-8.18 605 -89.36 605 -173 605 C-173.61474889 600.69675775 -174.13900223 596.72087719 -174.359375 592.4296875 C-178.13320189 527.5248635 -201.69994266 466.27312022 -243 416 C-243.43006348 415.46697266 -243.86012695 414.93394531 -244.30322266 414.38476562 C-250.92597402 406.199509 -258.14415002 398.65490449 -265.5625 391.1875 C-266.42472168 390.31601318 -267.28694336 389.44452637 -268.17529297 388.54663086 C-274.14212578 382.60860968 -280.41669752 377.239616 -287 372 C-288.27793038 370.95151656 -289.55421718 369.90102343 -290.828125 368.84765625 C-299.21054754 361.99442708 -307.84584806 355.77965167 -317 350 C-317.57621094 349.63342285 -318.15242187 349.2668457 -318.74609375 348.88916016 C-330.4164989 341.51576642 -342.66369581 335.17563383 -355 329 C-355.81001465 328.59249512 -356.6200293 328.18499023 -357.45458984 327.76513672 C-384.82881601 314.19099663 -415.25520763 305.93142803 -445.25 300.75 C-446.12277588 300.59861572 -446.99555176 300.44723145 -447.89477539 300.29125977 C-465.37937556 297.47711567 -482.87754083 296.62001568 -500.5625 296.6875 C-502.06278748 296.69023422 -502.06278748 296.69023422 -503.59338379 296.69302368 C-519.89421764 296.74280638 -535.87535763 297.41673047 -552 300 C-553.07475586 300.17160645 -554.14951172 300.34321289 -555.25683594 300.52001953 C-617.65690184 310.85843732 -676.79927312 337.66052591 -724 380 C-724.7741626 380.68956787 -724.7741626 380.68956787 -725.56396484 381.39306641 C-735.92848057 390.64791906 -746.03270006 400.1481161 -754.65649414 411.07373047 C-756.95662999 413.94584509 -759.3295438 416.74087133 -761.71875 419.5390625 C-766.88595144 425.68535053 -771.45638222 432.17118681 -775.875 438.875 C-776.25985565 439.45549103 -776.6447113 440.03598206 -777.04122925 440.63406372 C-810.13871452 490.68044793 -825.16260763 545.41476024 -828 605 C-909.18 605 -990.36 605 -1074 605 C-1074 570.09389195 -1074 570.09389195 -1072.8125 558.625 C-1072.74686859 557.95820221 -1072.68123718 557.29140442 -1072.61361694 556.60440063 C-1065.34191647 482.86607156 -1042.8298575 410.71438451 -1005.51953125 346.61279297 C-1004.12684578 344.21810789 -1002.74872041 341.81575203 -1001.375 339.41015625 C-986.84938855 314.13783722 -969.57570554 290.08604684 -950.5625 268 C-948.07033681 265.08234554 -945.65483067 262.11478948 -943.25 259.125 C-940.26339407 255.45285642 -937.18058735 252.04673111 -933.76879883 248.76977539 C-932.0615682 247.06160219 -930.50310403 245.29431526 -928.94140625 243.453125 C-924.3853108 238.21205164 -919.48152479 233.33554814 -914.5625 228.4375 C-913.20801758 227.0772168 -913.20801758 227.0772168 -911.82617188 225.68945312 C-907.25863084 221.12852692 -902.63976135 216.69855089 -897.74047852 212.49536133 C-895.33598492 210.4295003 -893.01586651 208.27593267 -890.6875 206.125 C-885.28343362 201.20818551 -879.72481413 196.53714873 -874 192 C-873.35675781 191.48953125 -872.71351563 190.9790625 -872.05078125 190.453125 C-841.91563302 166.61237927 -810.00981301 145.89692075 -776 128 C-775.00790527 127.47792969 -774.01581055 126.95585937 -772.99365234 126.41796875 C-705.98518539 91.44037876 -632.06713552 71.28171151 -557 64 C-555.87158691 63.88285645 -554.74317383 63.76571289 -553.58056641 63.64501953 C-517.58650507 60.00395486 -479.97504597 60.2932054 -444 64 C-442.72141113 64.12890625 -441.44282227 64.2578125 -440.12548828 64.390625 C-392.31882476 69.30633106 -345.43226432 79.66678042 -300.15039062 95.85083008 C-298.99603516 96.26099365 -297.84167969 96.67115723 -296.65234375 97.09375 C-295.12081665 97.64579102 -295.12081665 97.64579102 -293.55834961 98.20898438 C-290.96861965 99.14769626 -290.96861965 99.14769626 -288 99 C-287.731875 97.98164063 -287.46375 96.96328125 -287.1875 95.9140625 C-279.21070017 66.68558713 -263.93238885 41.73133499 -243 20 C-242.31035156 19.2471875 -241.62070312 18.494375 -240.91015625 17.71875 C-181.25284049 -45.4882333 -72.46919369 -50.45953098 0 0 Z " fill="#FFFFFF" transform="translate(1074,34)"/>
<path d="M0 0 C1.87144973 1.69783638 3.73264474 3.40706363 5.58203125 5.12890625 C7.63122207 7.02246233 9.71818405 8.81613485 11.86328125 10.59765625 C32.77444287 28.90559163 49.1670528 52.95271596 62.05078125 77.41015625 C62.41526367 78.09432617 62.77974609 78.77849609 63.15527344 79.48339844 C80.87256701 113.2134975 87.33705096 149.70808983 89.05078125 187.41015625 C-86.17921875 187.41015625 -261.40921875 187.41015625 -441.94921875 187.41015625 C-441.94921875 165.15563212 -441.94921875 165.15563212 -440.82421875 157.28515625 C-440.69370117 156.33979004 -440.56318359 155.39442383 -440.42871094 154.42041016 C-433.63178353 108.44695771 -414.30201827 65.59692014 -383.94921875 30.41015625 C-383.315 29.66507812 -382.68078125 28.92 -382.02734375 28.15234375 C-370.71970872 15.22307113 -358.53558459 2.83515541 -344.66015625 -7.32763672 C-342.89283 -8.63144333 -341.15482752 -9.96843413 -339.41796875 -11.3125 C-325.10544146 -22.26462777 -309.26905052 -31.00051262 -292.94921875 -38.58984375 C-292.16885254 -38.95319824 -291.38848633 -39.31655273 -290.58447266 -39.69091797 C-198.10717244 -82.20400737 -85.44958062 -67.70833712 0 0 Z " fill="#FFFFFF" transform="translate(749.94921875,451.58984375)"/>
<path d="M0 0 C1.04929687 0.75152344 2.09859375 1.50304688 3.1796875 2.27734375 C39.30648629 28.96965465 63.96556719 68.59747417 71.25 112.9375 C71.51944987 114.95583202 71.77044829 116.97674189 72 119 C72.11085938 119.95648438 72.22171875 120.91296875 72.3359375 121.8984375 C76.81252647 167.02729384 62.79749131 211.37490464 34.3046875 246.4296875 C15.41888158 269.1605078 -8.32787542 287.33227971 -36 298 C-37.08667969 298.42708252 -37.08667969 298.42708252 -38.1953125 298.86279297 C-85.65734215 317.44481252 -138.99504293 317.32982156 -186.05078125 297.2578125 C-215.38626938 284.17710844 -240.91311802 263.80327133 -260 238 C-260.63639404 237.14607666 -260.63639404 237.14607666 -261.28564453 236.27490234 C-287.05103333 201.20618441 -296.69708315 156.42180061 -290.26757812 113.71044922 C-289.98546168 111.94147701 -289.69699061 110.17350344 -289.40136719 108.40673828 C-289.04719512 106.28299848 -288.72643557 104.15750886 -288.4140625 102.02734375 C-281.46423235 60.55400667 -252.44314507 23.44978201 -219.00439453 -0.58984375 C-154.91069233 -45.68183205 -63.69829256 -46.11756382 0 0 Z " fill="#FFFFFF" transform="translate(1074,34)"/>
</svg>
