<?xml version="1.0" encoding="UTF-8"?>
<svg version="1.1" xmlns="http://www.w3.org/2000/svg" width="8062" height="1007">
<path d="M0 0 C126.06 0 252.12 0 382 0 C382 94.71 382 189.42 382 287 C409.01888833 282.99138057 409.01888833 282.99138057 435 276 C435.67772461 275.7829541 436.35544922 275.5659082 437.05371094 275.34228516 C455.34593414 269.44288446 472.97676888 259.96224778 488 248 C488.54269531 247.56864746 489.08539063 247.13729492 489.64453125 246.69287109 C513.09053982 227.89351001 530.26836777 204.61521682 544 178 C544.36947754 177.28408691 544.73895508 176.56817383 545.11962891 175.83056641 C572.65185522 121.27299356 577.0791494 59.87743726 580 0 C708.37 0 836.74 0 969 0 C969 41.18542683 969 41.18542683 968.25 54.5625 C968.18564758 55.77039185 968.18564758 55.77039185 968.11999512 57.00268555 C963.43311539 143.96336198 947.42194915 229.56771713 871 359 C869.86111328 360.42892578 869.86111328 360.42892578 868.69921875 361.88671875 C864.39985891 367.21079647 859.95316714 372.367321 855.3359375 377.41796875 C853.44295939 379.51037432 851.59562512 381.62864268 849.75390625 383.765625 C845.86851111 388.21477723 841.74930062 392.39831036 837.5625 396.5625 C836.85029297 397.27857422 836.13808594 397.99464844 835.40429688 398.73242188 C830.76667072 403.36162364 825.97549345 407.73826382 821 412 C819.78856102 413.05541424 818.57760903 414.11138778 817.3671875 415.16796875 C816.20347218 416.17488056 815.03941287 417.18139494 813.875 418.1875 C813.29363281 418.69474609 812.71226563 419.20199219 812.11328125 419.72460938 C808.56192696 422.78735452 804.95657681 425.48053847 801 428 C804.71725087 431.82186394 808.61548658 435.31196946 812.6875 438.75 C818.54677464 443.74019199 824.33421231 448.78971288 830 454 C830.61697754 454.56654297 831.23395508 455.13308594 831.86962891 455.71679688 C833.98069195 457.65991736 836.08490203 459.61022504 838.1875 461.5625 C839.18595947 462.48252808 839.18595947 462.48252808 840.20458984 463.42114258 C844.16942206 467.1222114 847.82042254 470.9695718 851.34985352 475.0871582 C853.3177304 477.36831153 855.36222807 479.56661119 857.42285156 481.76367188 C863.23224181 487.9598339 868.75979443 494.31179416 874 501 C874.56170898 501.71091797 875.12341797 502.42183594 875.70214844 503.15429688 C886.28784689 516.59906682 895.95642769 530.47471628 905 545 C905.55252441 545.8873584 906.10504883 546.7747168 906.67431641 547.68896484 C947.3930448 613.66283969 970.50666067 687.69163537 991.875 834.125 C991.93675415 834.80888794 991.9985083 835.49277588 992.06213379 836.1973877 C992.80211473 844.54830974 993 852.5644092 993 861 C857.04 861 721.08 861 581 861 C579.68 844.83 578.36 828.66 577 812 C574.23457777 788.05726545 570.9727979 764.54983819 566 741 C565.75056641 739.80858398 565.50113281 738.61716797 565.24414062 737.38964844 C554.11946887 685.35535471 534.06721395 634.98838053 497 596 C496.38125 595.31679688 495.7625 594.63359375 495.125 593.9296875 C465.39342444 562.20715822 423.39210042 552.17401255 382 547 C382 650.62 382 754.24 382 861 C255.94 861 129.88 861 0 861 C0 576.87 0 292.74 0 0 Z " fill="#000000" transform="translate(3668,73)"/>
<path d="M0 0 C76.291875 -0.061875 152.58375 -0.12375 231.1875 -0.1875 C255.23133545 -0.21481201 279.2751709 -0.24212402 304.04760742 -0.27026367 C333.52404785 -0.28381348 333.52404785 -0.28381348 347.34565735 -0.28633118 C356.94988743 -0.28911364 366.55406435 -0.30005345 376.15827942 -0.31672668 C387.26548588 -0.33598026 398.37264187 -0.34447149 409.47986509 -0.34033485 C415.14754821 -0.33854693 420.81511892 -0.34114641 426.48278081 -0.35764539 C459.19815706 -0.4482474 491.68816601 0.53637511 524.0625 5.6875 C524.87044006 5.81249878 525.67838013 5.93749756 526.51080322 6.06628418 C610.78820071 19.16639778 694.3374583 51.25722206 759 108 C760.06347656 108.91458984 760.06347656 108.91458984 761.1484375 109.84765625 C773.83059372 120.79572172 786.14079985 132.22057544 797 145 C797.88952965 146.01528364 798.78025986 147.02951608 799.671875 148.04296875 C865.46180647 223.1880003 902.4773524 325.14565989 903.1875 431.25 C903.18656342 432.02479706 903.18562683 432.79959412 903.18466187 433.59786987 C903.00406164 503.39051393 886.4954221 569.9070516 855 632 C854.56558594 632.86318848 854.13117188 633.72637695 853.68359375 634.61572266 C837.47049502 666.68742579 816.1980586 695.54081134 792 722 C791.01807843 723.08710345 790.03631673 724.17435132 789.0546875 725.26171875 C784.30329286 730.49918765 779.59655239 735.61504237 774.15625 740.15234375 C771.92608928 742.06333292 769.80470464 744.07108412 767.67797852 746.09570312 C760.24164138 753.13533072 752.30457301 759.35199999 744.0859375 765.44921875 C742.13140372 766.90230847 740.18943579 768.37060409 738.25 769.84375 C660.78683808 828.25380912 562.15990609 853.94012833 438.68847656 861.12025452 C436.79006943 861.12069296 434.89166237 861.12157175 432.99325562 861.12284851 C427.80963016 861.12507506 422.62602564 861.12110062 417.44240284 861.11607273 C411.7542249 861.11168427 406.06604782 861.11316877 400.37786865 861.11389065 C389.3523232 861.11442082 378.32678594 861.10981798 367.30124259 861.10338932 C354.53936926 861.09617192 341.77750081 861.09539362 329.015625 861.09460449 C295.34374871 861.08936027 261.67187423 861.07539909 228 861.0625 C152.76 861.041875 77.52 861.02125 0 861 C0 576.87 0 292.74 0 0 Z M366 370 C347.8130156 392.57187222 342.40154061 418.50648139 344 447 C344.66936342 452.86645335 346.1287071 458.41211148 348 464 C348.20367187 464.62874023 348.40734375 465.25748047 348.6171875 465.90527344 C356.98069277 491.0086959 374.96012594 511.08488045 398.25952148 523.30053711 C421.40317401 534.83810517 448.55040963 537.57515736 473.31640625 529.7109375 C499.15809436 520.76124899 520.76849188 503.42268107 533.29248047 478.91796875 C545.2718332 454.19084144 546.94781342 427.44241112 538.8125 401.25 C534.46386035 389.18057199 528.46523081 378.65069706 520 369 C519.39800781 368.25492187 518.79601563 367.50984375 518.17578125 366.7421875 C503.27942888 348.81659786 479.2242224 336.1561857 456 334 C420.20981765 331.70000396 390.26085872 343.00001207 366 370 Z " fill="#000000" transform="translate(7087,73)"/>
<path d="M0 0 C147.13875 -0.12375 147.13875 -0.12375 297.25 -0.25 C343.66640137 -0.30462402 343.66640137 -0.30462402 391.02050781 -0.36035156 C428.88037109 -0.37841797 428.88037109 -0.37841797 446.61834717 -0.3817749 C459.786954 -0.38573733 472.95547762 -0.40292458 486.12406121 -0.42669371 C499.5898436 -0.45066734 513.05557426 -0.45930971 526.52137713 -0.4537798 C533.81309964 -0.4511823 541.10467965 -0.45453728 548.39637232 -0.47686052 C644.24657931 -0.75902584 738.01744076 18.34205319 808.875 87.625 C813.9486211 92.81103516 818.52535106 98.29501851 823 104 C824.15048828 105.40765625 824.15048828 105.40765625 825.32421875 106.84375 C865.43297985 156.96355454 881.26738885 222.20843436 875.17553711 285.46533203 C869.8420292 332.80335311 851.6018363 377.44609773 819.17578125 412.63671875 C817.69441062 414.24574789 816.23409096 415.87435634 814.79296875 417.51953125 C804.71187358 429.01303905 792.74637674 439.50241551 780 448 C781.66338411 452.01741308 784.46241203 454.98024221 787.3125 458.1875 C793.69661576 465.5055451 799.59088386 473.14096794 805.41943359 480.90478516 C806.90815965 482.8782555 808.41351265 484.83751077 809.92578125 486.79296875 C823.15639858 504.00061331 834.9842104 522.30727739 846 541 C846.68642578 542.15870605 846.68642578 542.15870605 847.38671875 543.34082031 C889.37827971 614.52514454 916.33651437 693.74087408 941.5 832.75 C941.69521744 834.20155487 941.69521744 834.20155487 941.89437866 835.68243408 C942.26009068 838.42799244 942.61667729 841.17453733 942.96875 843.921875 C943.1274633 845.12676071 943.1274633 845.12676071 943.28938293 846.35598755 C943.38402328 847.11604095 943.47866364 847.87609436 943.57617188 848.65917969 C943.69986145 849.63259308 943.69986145 849.63259308 943.8260498 850.62567139 C944.07875925 854.07502228 944 857.54140438 944 861 C813.32 861 682.64 861 548 861 C547.22337049 857.89348197 546.77756343 855.28703026 546.52270508 852.13525391 C546.44179123 851.16110031 546.36087738 850.18694672 546.2775116 849.18327332 C546.19237808 848.12505875 546.10724457 847.06684418 546.01953125 845.9765625 C545.82700938 843.67564331 545.6337819 841.37478308 545.43994141 839.07397461 C545.33820618 837.86015106 545.23647095 836.64632751 545.13165283 835.39572144 C534.34531183 701.44765326 534.34531183 701.44765326 475 584 C474.4121875 583.26652344 473.824375 582.53304687 473.21875 581.77734375 C454.65807532 559.48094006 427.06947825 548.00992546 399 544 C393.06 543.67 387.12 543.34 381 543 C381 647.94 381 752.88 381 861 C255.27 861 129.54 861 0 861 C0 576.87 0 292.74 0 0 Z M354 186 C353.28585937 186.64324219 352.57171875 187.28648437 351.8359375 187.94921875 C335.85538237 202.62458909 325.76104137 226.20259024 324.08984375 247.68359375 C322.99586003 275.88934788 330.28138256 302.45436558 349.50585938 323.66113281 C367.75375113 343.25372305 391.45144618 355.90901241 418.484375 357.25390625 C446.32500335 358.16472288 471.47213694 349.33394824 492.25 330.75 C510.78615871 313.375247 523.30451667 288.94269309 524.3359375 263.30859375 C524.78345136 234.15380345 516.53669157 210.14874008 497 188 C496.46117188 187.37738281 495.92234375 186.75476563 495.3671875 186.11328125 C479.90907922 169.45114946 455.38223375 158.10967243 432.74438477 156.87719727 C402.55624313 155.89120515 375.5624373 164.40518667 354 186 Z " fill="#000000" transform="translate(6095,73)"/>
<path d="M0 0 C95.266875 -0.061875 190.53375 -0.12375 288.6875 -0.1875 C333.75896606 -0.22846802 333.75896606 -0.22846802 379.7409668 -0.27026367 C416.51721191 -0.28381348 416.51721191 -0.28381348 433.75007629 -0.28633118 C446.5373681 -0.2893017 459.32461165 -0.30218724 472.11188999 -0.32002028 C485.1909375 -0.33801089 498.26995506 -0.34447995 511.34901445 -0.34033485 C518.42988219 -0.33838816 525.51066738 -0.34088744 532.59151781 -0.35764539 C582.50545659 -0.46762768 631.37725949 1.78247772 680 14 C681.03882324 14.26006836 682.07764648 14.52013672 683.14794922 14.78808594 C728.03421487 26.23201761 772.02433178 45.89041962 806 78 C807.39066622 79.21427657 808.78632963 80.42285952 810.1875 81.625 C817.61534791 88.13179477 823.88350352 95.24625951 830 103 C830.74507812 103.93972656 831.49015625 104.87945312 832.2578125 105.84765625 C867.99931671 152.11235596 879.23650781 213.2400174 872.75 270.5078125 C867.8339755 308.57938425 854.22683308 342.86414414 829 372 C828.29488281 372.81597656 827.58976563 373.63195312 826.86328125 374.47265625 C816.77203147 385.90457476 806.18391578 395.87021185 794 405 C792.76817722 405.93873392 791.53640677 406.87753651 790.3046875 407.81640625 C781.88064788 414.17238704 773.1474676 419.74507181 764 425 C765.85341245 426.1470529 767.70779524 427.29253786 769.5625 428.4375 C770.43781372 428.978302 770.43781372 428.978302 771.33081055 429.5300293 C774.41780654 431.43151403 777.51435836 433.31213525 780.640625 435.1484375 C809.82051005 452.31078134 838.41636844 473.84312844 859 501 C859.59458008 501.77996338 859.59458008 501.77996338 860.20117188 502.57568359 C893.66644509 546.80883918 902.7200572 604.33454542 895.359375 658.52099609 C887.245294 714.49272061 861.58552995 765.7033855 815.92431641 800.41796875 C814.29324657 801.62708688 812.64989636 802.81673596 811 804 C809.93652344 804.7734375 808.87304688 805.546875 807.77734375 806.34375 C799.78266018 812.01676969 791.50233726 817.13394912 783 822 C782.36674805 822.36593262 781.73349609 822.73186523 781.08105469 823.10888672 C748.69805748 841.64033914 711.51870234 851.87498955 674.8125 857.25 C673.78278076 857.40114258 672.75306152 857.55228516 671.69213867 857.70800781 C651.13898001 860.51063937 630.65314536 861.29214942 609.9309082 861.24050903 C607.28903258 861.24138618 604.64716816 861.2430608 602.0052948 861.24569702 C596.29983794 861.24981217 590.59442325 861.24662804 584.88897133 861.23843026 C576.2953216 861.22612362 567.70169684 861.22569928 559.10803988 861.22736086 C544.70002972 861.22983383 530.29203791 861.2233049 515.8840332 861.21115112 C496.40249987 861.19474681 476.92099782 861.19094137 457.43945312 861.18920898 C410.62629837 861.17872267 363.81314882 861.15080029 317 861.125 C160.085 861.063125 160.085 861.063125 0 861 C0 576.87 0 292.74 0 0 Z M349.45947266 192.31103516 C335.61165219 208.33633157 326.93329434 229.80644106 326 251 C325.9484375 251.83660156 325.896875 252.67320312 325.84375 253.53515625 C324.91072627 281.79800006 336.0053352 307.07659186 355.07421875 327.45776367 C372.54726615 345.56426637 397.49922974 356.70971739 422.7097168 357.29272461 C452.77663188 357.53269112 477.28911589 346.78870287 499.125 326.25 C519.07617036 305.5659295 526.58308123 278.70708098 526.28125 250.65625 C526.04597242 242.3368347 524.55482342 234.89063495 522 227 C521.63777344 225.86820312 521.27554688 224.73640625 520.90234375 223.5703125 C516.29822819 210.55393157 509.22039325 199.2360648 500 189 C498.95392578 187.83017578 498.95392578 187.83017578 497.88671875 186.63671875 C481.3380164 169.11990218 456.41327837 157.58493736 432.28515625 156.796875 C399.39550882 156.30011902 371.8286284 167.88511322 349.45947266 192.31103516 Z M351.5625 511.09375 C333.63941532 531.42115092 324.48156745 557.95897783 326 585 C327.72749966 605.94897469 335.72862391 625.71470453 349 642 C350.01320313 643.25876953 350.01320313 643.25876953 351.046875 644.54296875 C366.73460515 663.00754164 389.9683135 675.13843914 414 678 C443.1481985 680.12477609 469.38309473 672.81354893 492 654 C509.31417228 638.94706853 520.14789856 619.30401467 525 597 C525.19335938 596.113125 525.38671875 595.22625 525.5859375 594.3125 C528.99261484 567.0590813 523.27255216 540.40513254 506.625 518.375 C505.42903662 516.90650514 504.22023564 515.44838894 503 514 C502.01773438 512.79923828 502.01773438 512.79923828 501.015625 511.57421875 C484.23419509 491.88359935 459.66139739 480.19777951 434 478 C401.85261052 476.38057095 373.73725704 488.14545492 351.5625 511.09375 Z " fill="#000000" transform="translate(72,73)"/>
<path d="M0 0 C95.2875 -0.061875 190.575 -0.12375 288.75 -0.1875 C318.80674805 -0.21481201 348.86349609 -0.24212402 379.83105469 -0.27026367 C416.61181641 -0.28381348 416.61181641 -0.28381348 433.84552002 -0.28633118 C446.63655504 -0.28930234 459.42754186 -0.30219031 472.21856341 -0.32002028 C485.29986811 -0.33800575 498.38114284 -0.3444811 511.4624594 -0.34033485 C518.54525052 -0.33838745 525.62795911 -0.34089442 532.71073294 -0.35764539 C604.0972588 -0.51496338 676.53846589 4.79123667 742 36 C742.67579102 36.31936523 743.35158203 36.63873047 744.04785156 36.96777344 C759.93237588 44.52270171 775.00048558 53.33719743 789 64 C789.60602051 64.45648926 790.21204102 64.91297852 790.83642578 65.38330078 C836.32007115 99.94050999 863.97622976 148.24996759 871.83996582 204.67710876 C873.33113399 216.21533497 873.39648478 227.75605319 873.375 239.375 C873.37478851 240.43181976 873.37457703 241.48863953 873.37435913 242.57748413 C873.34154355 259.02773108 872.59105813 274.88530838 869 291 C868.80744629 291.88268555 868.61489258 292.76537109 868.41650391 293.67480469 C862.31052495 320.82269108 850.15489025 346.80311388 832 368 C831.05018063 369.13361162 830.1010079 370.26776521 829.15234375 371.40234375 C820.72007495 381.42972459 811.98929182 390.58320687 801.65625 398.69873047 C800.48623083 399.61798197 799.31990841 400.54194799 798.15625 401.46923828 C787.25487568 410.14004866 775.90306701 417.77222277 764 425 C766.58335893 426.99910073 769.17212586 428.74926093 772.01953125 430.34765625 C772.78676514 430.78263428 773.55399902 431.2176123 774.34448242 431.66577148 C775.15892822 432.12669189 775.97337402 432.5876123 776.8125 433.0625 C826.05345781 461.3092147 872.69278557 502.60725546 888.69140625 558.94921875 C893.61293448 577.45372316 896.14639914 595.88603571 897 615 C897.05196533 616.11713379 897.05196533 616.11713379 897.10498047 617.25683594 C899.38371833 674.80558215 881.59280478 732.24740671 842.625 775 C834.29212529 784.01149897 825.77064815 792.53348328 816 800 C815.360625 800.48871582 814.72125 800.97743164 814.0625 801.48095703 C766.60111973 837.42011322 709.68859454 854.32634716 651 860 C650.09975865 860.08942334 649.1995173 860.17884668 648.2719959 860.27097982 C635.91064899 861.32439398 623.52948349 861.13551006 611.13345337 861.12025452 C608.50022775 861.12069238 605.86700496 861.12152813 603.23377991 861.12284851 C597.51622359 861.12491791 591.79867774 861.12329342 586.08112264 861.11921513 C577.46902832 861.11309244 568.85694028 861.11284705 560.24484417 861.11368043 C545.80982375 861.1149203 531.37480789 861.11163827 516.93978882 861.10557556 C497.42169024 861.09739246 477.90359945 861.09547192 458.38549805 861.09460449 C411.4653311 861.08935523 364.54516546 861.07539411 317.625 861.0625 C212.80875 861.041875 107.9925 861.02125 0 861 C0 576.87 0 292.74 0 0 Z M409 160 C407.78183594 160.32871094 406.56367188 160.65742188 405.30859375 160.99609375 C390.81704448 165.36320297 378.1782958 172.80382284 367 183 C366.23429687 183.68449219 365.46859375 184.36898437 364.6796875 185.07421875 C347.08970088 201.65293437 335.54774733 225.92395809 334.6640625 250.12890625 C334.25710753 278.98935234 341.6079865 304.36480292 361.70874023 325.734375 C380.81614837 345.33914887 405.20719839 356.64221901 432.71948242 357.42407227 C461.09303457 357.57463139 486.32036681 346.64278919 506.625 326.875 C523.31905346 310.03242293 533.95090619 286.82317203 535 263 C535.0515625 262.16339844 535.103125 261.32679688 535.15625 260.46484375 C536.08917765 232.20491028 524.99657113 206.91880216 505.92504883 186.54199219 C488.03569242 167.99789649 463.14029653 157.31837379 437.43408203 156.71459961 C427.57028758 156.61727684 418.55590632 157.39192391 409 160 Z M358.8425293 512.31176758 C339.53050177 534.81669781 333.43047163 561.93303605 335 591 C337.62595351 616.0774048 352.01489995 639.83521314 371 656 C393.61550171 673.6136929 421.2200226 681.10721797 449.66162109 677.67919922 C459.23307403 676.12518348 468.28981327 673.27785433 477 669 C478.07894531 668.4740625 479.15789062 667.948125 480.26953125 667.40625 C487.56985608 663.66685195 493.8047282 659.35288545 500 654 C500.69738281 653.43539062 501.39476563 652.87078125 502.11328125 652.2890625 C521.1479987 636.54383991 531.56724715 612.25434349 534.75 588.1875 C534.85582984 586.79319186 534.93848228 585.39696482 535 584 C535.0515625 583.16339844 535.103125 582.32679688 535.15625 581.46484375 C536.00599528 555.72464297 526.35135037 529.94721035 509 511 C508.22914062 510.14792969 507.45828125 509.29585937 506.6640625 508.41796875 C488.74130545 489.53817127 464.17061262 479.35688995 438.42578125 477.78125 C407.99199707 477.00504296 379.17685139 489.6446643 358.8425293 512.31176758 Z " fill="#000000" transform="translate(4709,73)"/>
<path d="M0 0 C0.87013691 0.00262701 1.74027381 0.00525403 2.6367785 0.00796065 C3.55640763 0.0068068 4.47603676 0.00565296 5.42353344 0.00446415 C8.54586632 0.00178948 11.66814899 0.00632659 14.79047933 0.01075396 C17.03523391 0.01031843 19.27998844 0.00944386 21.52474269 0.00816479 C27.72494592 0.00591622 33.92513205 0.00994603 40.1253331 0.01494285 C46.11512249 0.01880114 52.10491065 0.01798368 58.09470083 0.01726101 C70.35320058 0.01594498 82.61169496 0.0192966 94.87019315 0.02527842 C107.01338571 0.03118882 119.15657604 0.03504303 131.29977003 0.03613123 C132.05387394 0.03619997 132.80797784 0.03626871 133.58493339 0.03633953 C137.41440886 0.03667785 141.24388433 0.03697924 145.07335981 0.03726641 C172.22063991 0.03936865 199.36791707 0.04611111 226.51519552 0.05556902 C252.89377609 0.06474854 279.27235586 0.07183456 305.65093771 0.07607684 C306.86989004 0.07627412 306.86989004 0.07627412 308.11346768 0.0764754 C316.27403761 0.07779388 324.43460755 0.0790697 332.59517749 0.08031426 C349.22024519 0.0828507 365.84531283 0.08567195 382.47038046 0.08866534 C383.61705348 0.08887127 383.61705348 0.08887127 384.78689162 0.08908137 C435.86388934 0.09828712 486.94088536 0.11415365 538.01788107 0.13100848 C538.82422868 2.05600371 539.62953959 3.98143321 540.43440977 5.90704665 C541.10726198 7.51531227 541.10726198 7.51531227 541.79370716 9.15606812 C543.08839448 12.30236746 544.26867028 15.46592918 545.36700216 18.68594012 C545.75924978 19.82924288 546.1514974 20.97254565 546.55563131 22.15049395 C546.9634081 23.35191531 547.3711849 24.55333666 547.79131857 25.79116473 C548.23579555 27.09082909 548.68066054 28.39036082 549.12588277 29.68977007 C550.06565756 32.43470153 551.00312463 35.18040476 551.93865743 37.92678484 C554.15925599 44.44501077 556.39231747 50.95897245 558.6238381 57.47346529 C559.36831153 59.64723432 560.11231965 61.82116218 560.85625997 63.9951137 C564.78485888 75.47180262 568.75957231 86.9319053 572.76788107 98.38100848 C573.95053541 101.76109004 575.13282136 105.14130021 576.31475607 108.52163348 C576.75611395 109.78383967 576.75611395 109.78383967 577.20638815 111.07154498 C581.16979467 122.41559122 585.09121111 133.77420773 589.01788107 145.13100848 C594.49556479 160.97219007 599.98933085 176.80750584 605.51788107 192.63100848 C611.43525269 209.56737368 617.31053038 226.5180742 623.17364278 243.47329363 C628.2666771 258.20016584 633.37815246 272.92036897 638.51788107 287.63100848 C644.43525269 304.56737368 650.31053038 321.5180742 656.17364278 338.47329363 C661.2666771 353.20016584 666.37815246 367.92036897 671.51788107 382.63100848 C677.43525269 399.56737368 683.31053038 416.5180742 689.17364278 433.47329363 C694.26667728 448.20016636 699.37828595 462.92032206 704.51788107 477.63100848 C710.00244795 493.33030032 715.45625043 509.04005249 720.89288107 524.75600848 C721.27006277 525.84630358 721.64724447 526.93659869 722.03585592 528.05993304 C723.56122808 532.46929147 725.08658079 536.87865663 726.61189047 541.28803667 C730.63779399 552.92501812 734.66985391 564.5598611 738.70538107 576.19350848 C739.23372045 577.71665163 739.23372045 577.71665163 739.77273336 579.27056536 C744.95408741 594.20549385 750.1557258 609.13325696 755.36831442 624.05730852 C761.00048474 640.18517359 766.59039624 656.32751705 772.17336813 672.47246966 C777.26649257 687.19961708 782.37805695 701.92009562 787.51788107 716.63100848 C793.43220623 733.55865427 799.30452747 750.50060452 805.16457906 767.44710955 C810.44793219 782.7244351 815.75172911 797.99442505 821.08038107 813.25600848 C821.69833682 815.02674792 822.31625742 816.79749964 822.93414083 818.56826434 C825.37127709 825.55210838 827.80904613 832.53572071 830.25318685 839.51711687 C831.32292121 842.57509923 832.38886946 845.63440093 833.45538107 848.69350848 C833.82735616 849.75263445 834.19933126 850.81176043 834.58257833 851.90298113 C834.91056417 852.84576922 835.23855001 853.7885573 835.57647482 854.75991473 C835.85805441 855.56501482 836.139634 856.37011492 836.4297463 857.19961199 C837.01788107 859.13100848 837.01788107 859.13100848 837.01788107 861.13100848 C710.95788107 861.13100848 584.89788107 861.13100848 455.01788107 861.13100848 C446.23554352 835.95497419 437.46918856 810.7906833 428.96716085 785.52145037 C427.08023896 779.91437558 425.18983383 774.30847434 423.29871908 768.70281252 C422.83379389 767.32432342 422.36909911 765.94575658 421.90464559 764.56710848 C419.25445307 756.70119761 416.58094063 748.84399501 413.86749044 740.99966082 C413.61010973 740.25482408 413.35272901 739.50998734 413.08754888 738.74257979 C411.84807387 735.15674093 410.60521635 731.57213713 409.35656515 727.98948321 C408.91381177 726.71141835 408.47115881 725.43331869 408.02862325 724.1551784 C407.6393868 723.03705263 407.25015035 721.91892687 406.84911886 720.76691851 C406.01788107 718.13100848 406.01788107 718.13100848 406.01788107 716.13100848 C313.94788107 716.46100848 221.87788107 716.79100848 127.01788107 717.13100848 C120.41788107 736.60100848 113.81788107 756.07100848 107.01788107 776.13100848 C102.3555668 789.79916055 97.68931567 803.46597081 93.01788107 817.13100848 C88.06788107 831.65100848 83.11788107 846.17100848 78.01788107 861.13100848 C-48.37211893 861.13100848 -174.76211893 861.13100848 -304.98211893 861.13100848 C-301.60700168 848.75557856 -301.60700168 848.75557856 -300.04364237 844.24038348 C-299.69127512 843.21709948 -299.33890787 842.19381548 -298.97586283 841.13952288 C-298.6015211 840.06421313 -298.22717936 838.98890337 -297.84149393 837.88100848 C-297.44274058 836.72650195 -297.04398722 835.57199541 -296.63315043 834.38250384 C-295.5591082 831.27535764 -294.48188757 828.16933785 -293.40307078 825.06384692 C-292.2675406 821.79267866 -291.13614254 818.52008123 -290.00409159 815.24770769 C-284.21951478 798.53379734 -278.40363252 781.83074239 -272.56707987 765.13491473 C-267.67680668 751.14348344 -262.82565479 737.13868066 -257.98211893 723.13100848 C-252.50434811 707.28985618 -247.01052567 691.45456188 -241.48211893 675.63100848 C-235.99755205 659.93171663 -230.54374957 644.22196446 -225.10711893 628.50600848 C-224.72993723 627.41571337 -224.35275553 626.32541827 -223.96414408 625.20208392 C-222.43877192 620.79272549 -220.91341921 616.38336033 -219.38810953 611.97398028 C-215.36220601 600.33699883 -211.33014609 588.70215585 -207.29461893 577.06850848 C-206.94239268 576.0530797 -206.59016642 575.03765093 -206.22726664 573.99145159 C-201.04591259 559.0565231 -195.8442742 544.12875999 -190.63168558 529.20470843 C-184.99951526 513.07684336 -179.40960376 496.9344999 -173.82663187 480.78954729 C-168.4340024 465.19635883 -163.01745459 449.61178877 -157.57538065 434.03579363 C-152.34980388 419.07712431 -147.16049566 404.10607762 -141.98211893 389.13100848 C-136.20478038 372.42383384 -130.40618187 355.72438194 -124.57538065 339.03579363 C-119.34980388 324.07712431 -114.16049566 309.10607762 -108.98211893 294.13100848 C-103.50426112 278.28988607 -98.01052578 262.45456219 -92.48211893 246.63100848 C-86.99755205 230.93171663 -81.54374957 215.22196446 -76.10711893 199.50600848 C-75.54134638 197.87056582 -75.54134638 197.87056582 -74.96414408 196.20208392 C-73.43877192 191.79272549 -71.91341921 187.38336033 -70.38810953 182.97398028 C-66.36220601 171.33699883 -62.33014609 159.70215585 -58.29461893 148.06850848 C-57.94239268 147.0530797 -57.59016642 146.03765093 -57.22726664 144.99145159 C-52.04765292 130.06153951 -46.84879133 115.13842431 -41.63672099 100.21981463 C-36.67738698 86.02305992 -31.75726941 71.81297079 -26.84655985 57.59933123 C-16.15411668 26.65761981 -16.15411668 26.65761981 -10.91961893 11.94350848 C-10.32056742 10.25270159 -10.32056742 10.25270159 -9.70941386 8.52773699 C-9.35467997 7.53701189 -8.99994608 6.5462868 -8.63446268 5.52553973 C-8.18574808 4.27027483 -8.18574808 4.27027483 -7.72796854 2.98965105 C-6.1757878 -0.87835287 -3.84997559 0.0110636 0 0 Z M193.19756857 346.07632098 C174.1548809 367.91426554 167.47827289 393.54080942 168.79473653 422.02016863 C170.40286369 444.4389391 181.71642105 464.16184839 197.01788107 480.13100848 C197.60311544 480.76780535 198.18834982 481.40460223 198.79131857 482.06069598 C215.88125677 500.1134476 241.34878831 508.63387104 265.70538107 509.44350848 C290.08139754 508.89172115 312.79564498 500.44592517 331.01788107 484.13100848 C331.91120138 483.33178973 332.80452169 482.53257098 333.72491232 481.70913348 C351.44507367 464.95552637 362.23286771 442.19802033 363.39678732 417.80678973 C364.19726516 388.64044263 355.32110648 364.27150972 335.48272482 342.66372332 C322.38078083 328.95472259 306.05131885 321.15522719 288.01788107 316.13100848 C287.09104513 315.86417254 286.16420919 315.5973366 285.20928732 315.32241473 C251.73124472 307.55550884 216.07197487 321.63226277 193.19756857 346.07632098 Z " fill="#000000" transform="translate(2045.982118934393,72.8689915239811)"/>
<path d="M0 0 C1.14662109 0.00060425 2.29324219 0.0012085 3.47460938 0.00183105 C22.02041833 0.02827715 40.39873063 0.460702 58.875 2.1875 C59.90291656 2.28224609 59.90291656 2.28224609 60.95159912 2.37890625 C137.9122094 9.5182961 216.61057888 26.95126101 346.875 90.1875 C347.205 90.8475 347.535 91.5075 347.875 92.1875 C346.80200195 94.72753906 346.80200195 94.72753906 345.11328125 97.953125 C344.66123573 98.82363495 344.66123573 98.82363495 344.20005798 99.71173096 C343.20379283 101.6245778 342.19585528 103.53100254 341.1875 105.4375 C340.48810698 106.77382709 339.78921819 108.11041818 339.09082031 109.44726562 C334.73498702 117.76291307 330.26117519 126.00963088 325.72241211 134.22680664 C320.71878555 143.35019302 315.98959891 152.61272505 311.25 161.875 C310.83290771 162.68999969 310.41581543 163.50499939 309.98608398 164.34469604 C308.35679421 167.52875185 306.72765769 170.71288601 305.09881592 173.89717102 C299.69597488 184.45359646 294.16568833 194.93806236 288.54296875 205.37890625 C287.29912719 207.6899158 286.05552117 210.00104934 284.8125 212.3125 C284.49878448 212.89572021 284.18506897 213.47894043 283.86184692 214.07983398 C278.48733542 224.08150708 273.24887682 234.14963919 268.0625 244.25 C267.69834991 244.9591153 267.33419983 245.66823059 266.95901489 246.39883423 C265.5410712 249.16036792 264.12323655 251.92195757 262.70558167 254.68363953 C257.41920023 264.97613453 252.02153806 275.20729329 246.53515625 285.39453125 C239.59430605 298.28852022 232.75149529 311.22332103 226.0625 324.25 C225.69834991 324.9591153 225.33419983 325.66823059 224.95901489 326.39883423 C223.5410712 329.16036792 222.12323655 331.92195757 220.70558167 334.68363953 C213.96755068 347.8024716 207.02041671 360.80938426 200.0625 373.8125 C199.7412616 374.41309235 199.42002319 375.01368469 199.08905029 375.63247681 C195.40595716 382.51531473 191.69577194 389.37998239 187.875 396.1875 C182.07306546 394.62428826 176.28413989 393.02461312 170.51171875 391.35546875 C143.39395804 383.57906644 115.95936632 378.10976426 87.875 375.1875 C87.0426181 375.10029694 86.21023621 375.01309387 85.35263062 374.92324829 C69.92218016 373.35637184 54.59030078 372.84374577 39.0847168 372.87182617 C35.44354479 372.87499474 31.80318253 372.85137046 28.16210938 372.82617188 C-2.86077198 372.7421348 -37.6850397 375.13538918 -64.125 393.1875 C-64.89328125 393.69796875 -65.6615625 394.2084375 -66.453125 394.734375 C-77.39307961 402.5486283 -84.06506028 414.08461092 -86.73828125 427.1953125 C-88.5658845 441.33616186 -86.48728399 455.40505896 -78.125 467.1875 C-57.53767772 491.83143751 -23.14330013 499.01080044 7.3828125 501.8125 C65.0091987 506.63491012 127.43399668 500.89134965 180.23193359 475.58789062 C185.56227403 473.08325801 185.56227403 473.08325801 188.875 474.1875 C190.32617188 476.61401367 190.32617188 476.61401367 191.84375 479.85546875 C192.40924561 481.04769043 192.97474121 482.23991211 193.55737305 483.46826172 C194.16326508 484.77050019 194.76914034 486.07274647 195.375 487.375 C196.32064414 489.37765261 197.27003108 491.37850219 198.21965027 493.37927246 C198.85866617 494.72614067 199.49652916 496.07355646 200.133255 497.42150879 C202.8561539 503.17955452 205.68776339 508.87876811 208.5625 514.5625 C212.21581799 521.81265507 215.7682378 529.10345552 219.25 536.4375 C223.19151933 544.73938256 227.24567749 552.97745669 231.375 561.1875 C235.95326978 570.29021713 240.41347105 579.43918318 244.78125 588.64453125 C248.06068681 595.53610135 251.4442891 602.37010401 254.875 609.1875 C258.77579738 616.9390364 262.59258136 624.72255519 266.3125 632.5625 C270.23257067 640.82305471 274.2666117 649.01900767 278.375 657.1875 C282.92973179 666.24349645 287.36665058 675.34533645 291.7109375 684.50390625 C295.70323833 692.89235338 299.86277243 701.19257008 304.03686523 709.49169922 C308.05331159 717.49600935 311.94237137 725.55387134 315.78125 733.64453125 C319.06068923 740.53610644 322.44448612 747.37000109 325.875 754.1875 C329.93223625 762.25522407 333.91734921 770.35268733 337.8125 778.5 C338.24884766 779.41201172 338.68519531 780.32402344 339.13476562 781.26367188 C342.1224855 787.53834397 345.01784131 793.85239234 347.875 800.1875 C340.70802089 805.2786236 333.1289814 809.37774089 325.3125 813.375 C324.35884552 813.8646373 324.35884552 813.8646373 323.38592529 814.36416626 C252.60831042 850.65282932 174.51197992 871.99098464 75.09576416 885.93035889 C72.96976852 886.1765268 70.84502966 886.43186233 68.72021484 886.68798828 C23.04556723 892.06658576 -26.46993709 892.18509066 -72.10998535 886.44073486 C-74.22186301 886.17532684 -76.33491083 885.92103549 -78.44824219 885.66748047 C-131.87816085 879.16714936 -184.10507381 865.55142946 -233.125 843.1875 C-234.00349609 842.79498047 -234.88199219 842.40246094 -235.78710938 841.99804688 C-249.38254387 835.92349104 -262.28422204 828.71184207 -275.125 821.1875 C-275.9495166 820.70490723 -276.7740332 820.22231445 -277.62353516 819.72509766 C-301.38503407 805.72725409 -323.25474788 789.03710385 -343.62109375 770.46875 C-345.35100469 768.89266889 -347.09412038 767.33100336 -348.84765625 765.78125 C-361.33752444 754.61937587 -372.75626172 742.3385473 -383.125 729.1875 C-384.02799543 728.08563659 -384.93307523 726.98547922 -385.83984375 725.88671875 C-441.11656008 658.54242041 -471.67383533 573.39817162 -479.125 487.1875 C-479.19702637 486.36797852 -479.26905273 485.54845703 -479.34326172 484.70410156 C-485.6653093 408.20229505 -472.14424455 328.87799039 -440.125 259.1875 C-439.4007832 257.57563694 -438.67681653 255.96366146 -437.953125 254.3515625 C-426.13050967 228.37156822 -411.03619825 203.46962536 -393.49804688 180.95751953 C-392.17551504 179.25261986 -390.87363217 177.534084 -389.578125 175.80859375 C-373.13230655 153.9774865 -354.12072319 132.72415769 -333.125 115.1875 C-332.24585937 114.41921875 -331.36671875 113.6509375 -330.4609375 112.859375 C-310.94455852 95.88072951 -289.53199245 81.0818237 -267.125 68.1875 C-266.45065918 67.79884766 -265.77631836 67.41019531 -265.08154297 67.00976562 C-197.33308453 28.18919567 -120.91315666 6.55904432 -43.125 1.1875 C-41.26415771 1.05613647 -41.26415771 1.05613647 -39.36572266 0.92211914 C-26.24857705 0.06097634 -13.14151152 -0.01283722 0 0 Z " fill="#000000" transform="translate(3283.125,58.8125)"/>
<path d="M0 0 C126.39 0 252.78 0 383 0 C383 205.59 383 411.18 383 623 C493.22 623 603.44 623 717 623 C717 701.54 717 780.08 717 861 C480.39 861 243.78 861 0 861 C0 576.87 0 292.74 0 0 Z " fill="#000000" transform="translate(997,73)"/>
<path d="M0 0 C126.06 0 252.12 0 382 0 C382 284.13 382 568.26 382 861 C255.94 861 129.88 861 0 861 C0 576.87 0 292.74 0 0 Z " fill="#000000" transform="translate(5641,73)"/>
</svg>
