<?xml version="1.0" encoding="UTF-8"?>
<svg id="Layer_1" data-name="Layer 1" xmlns="http://www.w3.org/2000/svg" version="1.1" viewBox="0 0 118 44">
  <defs>
    <style>
      .cls-1 {
        fill: #231f20;
        stroke-width: 0px;
      }
    </style>
  </defs>
  <g id="BMmXSR">
    <g>
      <path class="cls-1" d="M118,7.4c-.5,2.2-1.1,4.4-1.6,6.6-1,4.5-2.1,8.9-3.1,13.4-.2.9-.6,1.9-1,2.7-1.5,3.1-4.1,4.4-7.4,4.4h-22.1c-1.1,0-2.2,0-3.3,0-2.9,0-4.8-1.8-5.3-4.6-.3-1.8.2-3.5.6-5.1.9-3.8,1.8-7.5,2.7-11.3,0-.2.4-.6.6-.6h9.4c-1,4.4-2.1,8.7-3.1,13.1h19.5c1.3-5.7,2.6-11.3,3.9-17.1h-16.7c-14.3,0-28.5,0-42.8-.1-1.1,0-2.3,0-3.4-.1-.5,0-.7.1-.8.6-.9,3.7-1.8,7.3-2.7,11,0,.3-.2.6-.3.9h-9.9c.4-1.6.8-3.1,1.1-4.6.7-3,1.4-6,2.2-9,1.1-4,3.7-6.6,7.9-7.2.2,0,46.7-.2,69.8-.2.2,0,.4.2.6.2,2.3.4,3.9,1.8,4.7,3.9.2.6.3,1.1.5,1.7v1.3Z"/>
      <path class="cls-1" d="M.2,33.5C3,22.4,5.7,11.4,8.4.4h10c-.6,2.5-1.3,4.9-1.9,7.4-1.4,5.8-2.9,11.6-4.3,17.4,0,.2,0,.3-.1.6h57.8c-.4,2.3-.9,4.4-2.2,6.2-1.4,1.9-3.4,2.5-5.7,2.5h-25.9c-11.7,0-23.3,0-35,0H0"/>
      <path class="cls-1" d="M45.5,21.4c.7-2.9,1.4-5.6,2.1-8.4h25.6c-.7,2.7-1.3,5.3-2,7.9,0,.2-.3.3-.5.4,0,.1-.3,0-.5,0h-23.7c-.4.1-.7.1-1,.1Z"/>
    </g>
  </g>
  <g>
    <path class="cls-1" d="M.6,43.6v-5.6h1.1v4.6h2.8v1H.6Z"/>
    <path class="cls-1" d="M12.3,43.6h-1.3l-.5-1.3h-2.2l-.5,1.3h-1.2l2.2-5.6h1.2l2.3,5.6ZM10.2,41.4l-.8-2.1-.8,2.1h1.6Z"/>
    <path class="cls-1" d="M14.7,43.6v-5.6h1.1l2.3,3.8v-3.8h1.1v5.6h-1.2l-2.3-3.7v3.7h-1Z"/>
    <path class="cls-1" d="M25.7,41.5l1.1.4c-.2.6-.5,1.1-.8,1.4-.4.3-.9.4-1.5.4s-1.4-.3-1.8-.8c-.5-.5-.7-1.2-.7-2.1s.2-1.7.7-2.2,1.1-.8,1.9-.8,1.3.2,1.7.6c.3.2.4.6.6,1l-1.1.3c-.1-.3-.2-.5-.4-.7-.2-.2-.5-.3-.8-.3s-.8.2-1,.5c-.3.3-.4.8-.4,1.5s.1,1.2.4,1.5.6.5,1,.5.6,0,.8-.3.2-.4.3-.9Z"/>
    <path class="cls-1" d="M29.6,43.6v-5.6h4.2v1h-3v1.3h2.8v1h-2.8v1.5h3.2v1h-4.4v-.2Z"/>
    <path class="cls-1" d="M40.6,43.6v-5.6h4.2v1h-3v1.3h2.8v1h-2.8v1.5h3.2v1h-4.4v-.2Z"/>
    <path class="cls-1" d="M52.7,43.6h-1.2l-.5-1.3h-2.3l-.5,1.3h-1.2l2.2-5.6h1.2l2.3,5.6ZM50.6,41.4l-.8-2.1-.8,2.1h1.6Z"/>
    <path class="cls-1" d="M54.8,41.8h1.1c0,.3.2.5.4.7s.5.3.8.3.6,0,.8-.2c.2-.2.3-.3.3-.5s0-.2,0-.3-.2-.2-.4-.2-.4,0-.9-.2c-.6-.2-1-.3-1.3-.6s-.5-.7-.5-1.1,0-.6.2-.8.4-.4.7-.6c.3,0,.7-.2,1.1-.2.7,0,1.2.2,1.6.5.4.3.5.7.6,1.2h-1.1c0-.2-.2-.4-.3-.5s-.4-.2-.7-.2-.6,0-.8.2c0,0-.2.2-.2.3s0,.2.2.3c0,0,.5.2,1,.4s1,.3,1.2.4c.3,0,.5.3.6.6.2.2.2.5.2.9s0,.6-.3.9-.4.5-.8.6c-.3,0-.7.2-1.2.2s-1.3-.2-1.6-.5-.6-1-.6-1.6Z"/>
    <path class="cls-1" d="M63.4,43.6v-4.7h-1.7v-1h4.5v1h-1.7v4.7h-1.1Z"/>
    <path class="cls-1" d="M72.4,40.8c0-.6,0-1.1.3-1.4,0-.3.3-.5.5-.8s.5-.4.7-.5c.4,0,.8-.2,1.2-.2.8,0,1.5.3,2,.8s.7,1.2.7,2.2-.2,1.6-.7,2.1-1.2.8-2,.8-1.5-.3-2-.8c-.5-.6-.7-1.3-.7-2.2ZM73.6,40.8c0,.6,0,1.1.4,1.5s.7.5,1.1.5.8-.2,1.1-.5c.3-.3.4-.8.4-1.5s0-1.1-.4-1.4c-.3-.3-.7-.5-1.1-.5s-.8.1-1.1.4c-.3.4-.4.8-.4,1.5Z"/>
    <path class="cls-1" d="M80.5,43.6v-5.6h3.9v1h-2.7v1.3h2.3v1h-2.4v2.4h-1.1Z"/>
    <path class="cls-1" d="M87.1,43.6v-5.6h3.9v1h-2.7v1.3h2.4v1h-2.4v2.4h-1.2Z"/>
    <path class="cls-1" d="M93.7,43.6v-5.6h1.1v5.6h-1.1Z"/>
    <path class="cls-1" d="M101.3,41.5l1.1.4c-.2.6-.5,1.1-.8,1.4-.4.3-.9.4-1.5.4s-1.4-.3-1.8-.8c-.5-.5-.7-1.2-.7-2.1s.2-1.7.7-2.2,1.1-.8,1.9-.8,1.3.2,1.7.6c.3.2.5.6.6,1l-1.1.3c0-.3-.2-.5-.4-.7-.2-.2-.5-.3-.8-.3s-.8.2-1,.5c-.3.3-.4.8-.4,1.5s0,1.2.4,1.5.6.5,1,.5.6,0,.8-.3c0-.1.2-.4.3-.9Z"/>
    <path class="cls-1" d="M105.1,43.6v-5.6h4.2v1h-3v1.3h2.8v1h-2.8v1.5h3.2v1h-4.4v-.2Z"/>
  </g>
</svg>