<?xml version="1.0" encoding="UTF-8"?>
<svg version="1.1" xmlns="http://www.w3.org/2000/svg" width="452" height="124">
<path d="M0 0 C149.16 0 298.32 0 452 0 C452 40.92 452 81.84 452 124 C302.84 124 153.68 124 0 124 C0 83.08 0 42.16 0 0 Z " fill="#FCFCFB" transform="translate(0,0)"/>
<path d="M0 0 C3.43886734 1.74974142 6.71397406 3.73036515 10 5.75 C11.74965241 6.80786677 13.4996745 7.86512228 15.25 8.921875 C16.23162109 9.55375732 17.21324219 10.18563965 18.22460938 10.83666992 C21.23619705 12.67987549 24.34116894 14.00059521 27.60351562 15.3449707 C42.40238208 21.92656159 42.40238208 21.92656159 45.16064453 28.95928955 C46.81682751 37.50470734 46.09744595 46.06295639 45.5 54.6875 C45.4066734 57.30890808 45.3232479 59.93068843 45.25 62.55273438 C45.08453544 67.31940577 44.88871308 72.07914372 44.57617188 76.83862305 C44.51425659 77.78980515 44.45234131 78.74098724 44.3885498 79.72099304 C44 82 44 82 42 84 C40.68 84 39.36 84 38 84 C38 65.85 38 47.7 38 29 C36.35 28.34 34.7 27.68 33 27 C28.90610582 24.86604372 24.89835803 22.57622779 20.875 20.3125 C19.79734375 19.71244141 18.7196875 19.11238281 17.609375 18.49414062 C11.32143363 14.96759037 5.30476642 11.28104714 -0.55810547 7.07885742 C-3.01933758 5.67850602 -3.01933758 5.67850602 -5.81298828 6.81762695 C-6.53470215 7.20781006 -7.25641602 7.59799316 -8 8 C-5.38882669 10.96778531 -2.35105768 12.6711841 1.06640625 14.6171875 C1.65993393 14.95622101 2.25346161 15.29525452 2.86497498 15.64456177 C4.12196687 16.36121666 5.38030708 17.07551113 6.63989258 17.78759766 C8.5346853 18.85926836 10.42486854 19.93870963 12.31445312 21.01953125 C19.12762923 24.89665756 25.97389529 28.48694765 33 32 C33 50.81 33 69.62 33 89 C17 98 17 98 14 98 C14 79.85 14 61.7 14 43 C12.35 42.34 10.7 41.68 9 41 C6.87240301 39.85779456 4.76315832 38.68108646 2.66796875 37.48046875 C2.07252762 37.14002029 1.47708649 36.79957184 0.86360168 36.44880676 C-0.39202237 35.73001768 -1.64675315 35.00966615 -2.90063477 34.2878418 C-4.79429997 33.19797472 -6.69082363 32.11322955 -8.58789062 31.02929688 C-9.81533741 30.3259277 -11.04255479 29.62215805 -12.26953125 28.91796875 C-12.86331573 28.57750015 -13.45710022 28.23703156 -14.06887817 27.88624573 C-17.34426762 25.99593446 -20.53991449 24.02273747 -23.69921875 21.9453125 C-26.81949695 19.59691322 -26.81949695 19.59691322 -30 20.6875 C-30.66 21.120625 -31.32 21.55375 -32 22 C-28.40954261 25.01641744 -24.75095315 27.41416923 -20.66796875 29.71484375 C-20.07252762 30.05246231 -19.47708649 30.39008087 -18.86360168 30.7379303 C-16.9738833 31.80861254 -15.08093003 32.87339764 -13.1875 33.9375 C-11.30531622 34.99894015 -9.42389203 36.06168796 -7.54353333 37.12635803 C-5.83022594 38.09589267 -4.11476283 39.06161497 -2.39916992 40.02709961 C-1.27744385 40.67815674 -0.15571777 41.32921387 1 42 C1.71295731 42.30346848 2.42591461 42.60693695 3.16047668 42.91960144 C5.55532606 44.06872963 7.1844996 45.05137033 9 47 C10.21498281 51.08835011 10.14546002 55.06733175 10.09765625 59.30859375 C10.10768173 60.50807144 10.11770721 61.70754913 10.1280365 62.94337463 C10.13785357 65.47763151 10.12731626 68.01203741 10.09790039 70.54614258 C10.06263699 74.42244099 10.11786091 78.29022848 10.18164062 82.16601562 C10.1799483 84.63021816 10.17296296 87.09442391 10.16015625 89.55859375 C10.18151138 90.71499863 10.20286652 91.8714035 10.22486877 93.06285095 C10.04311212 100.90335923 10.04311212 100.90335923 7.03512573 104.06570435 C3.00665049 106.82699437 -1.00005298 109.11627784 -6 109 C-8.15864563 107.78462219 -8.15864563 107.78462219 -10 106 C-10.35075378 103.87321472 -10.35075378 103.87321472 -10.14916992 101.38354492 C-10.08923859 100.44759995 -10.02930725 99.51165497 -9.96755981 98.54734802 C-9.88931976 97.53527786 -9.81107971 96.5232077 -9.73046875 95.48046875 C-7.25271069 73.4973118 -7.25271069 73.4973118 -13.35449219 53.39892578 C-19.1394496 48.38801197 -25.71492108 45.95120272 -33.02001953 43.93554688 C-37.21886503 42.61734468 -40.36630189 40.44814525 -44 38 C-44.66 38 -45.32 38 -46 38 C-46 39.65 -46 41.3 -46 43 C-44.91114502 43.60473145 -44.91114502 43.60473145 -43.80029297 44.22167969 C-41.08188339 45.73301645 -38.36475144 47.2466192 -35.6484375 48.76171875 C-33.90460841 49.73350016 -32.15934715 50.70271016 -30.4140625 51.671875 C-29.30546875 52.290625 -28.196875 52.909375 -27.0546875 53.546875 C-25.53077393 54.39523926 -25.53077393 54.39523926 -23.97607422 55.26074219 C-22.99396973 55.83469727 -22.01186523 56.40865234 -21 57 C-19.89720703 57.53818359 -18.79441406 58.07636719 -17.65820312 58.63085938 C-14.74256969 61.22943642 -14.58887937 61.56019115 -14.31884766 65.21777344 C-14.31979438 66.93193421 -14.35351497 68.64628363 -14.4140625 70.359375 C-14.42255219 71.26375305 -14.43104187 72.1681311 -14.43978882 73.09991455 C-14.47333915 75.98449557 -14.54861924 78.86626621 -14.625 81.75 C-14.65509759 83.70699084 -14.68247376 85.66402555 -14.70703125 87.62109375 C-14.77313569 92.41514302 -14.87666714 97.20709531 -15 102 C-21.59295444 100.76224227 -28.99412898 98.80565747 -33 93 C-34.01123363 88.54387386 -33.7354917 84.07012485 -33.60693359 79.52929688 C-33.44451135 73.99463793 -33.44451135 73.99463793 -36.13671875 69.3359375 C-38.75732909 67.81815177 -41.08638975 66.80054467 -44 66 C-44.99 65.67 -45.98 65.34 -47 65 C-47 66.98 -47 68.96 -47 71 C-46.236875 71.28875 -45.47375 71.5775 -44.6875 71.875 C-42 73 -42 73 -39 75 C-38.70703125 78.2578125 -38.70703125 78.2578125 -38.8125 82.125 C-38.83957031 83.40632813 -38.86664063 84.68765625 -38.89453125 86.0078125 C-38.92933594 86.99523437 -38.96414062 87.98265625 -39 89 C-43.875 87.125 -43.875 87.125 -45 86 C-45.14115161 83.32941149 -45.04247107 80.67567762 -45 78 C-46.4540625 77.5359375 -46.4540625 77.5359375 -47.9375 77.0625 C-51 76 -51 76 -52 75 C-52.08669432 73.5112814 -52.10703494 72.018555 -52.09765625 70.52734375 C-52.09443359 69.62822266 -52.09121094 68.72910156 -52.08789062 67.80273438 C-52.07951172 66.85720703 -52.07113281 65.91167969 -52.0625 64.9375 C-52.05798828 63.98810547 -52.05347656 63.03871094 -52.04882812 62.06054688 C-52.0370011 59.70696935 -52.02052025 57.35351523 -52 55 C-43.04196271 56.54109282 -33.04934004 61.09193532 -27 68 C-24.37009884 74.99759484 -25.099859 82.70145418 -26 90 C-24.35 90.66 -22.7 91.32 -21 92 C-19.85660281 83.07493513 -18.84999875 73.58963977 -22 65 C-28.70419508 57.47534658 -38.96717395 53.90985227 -48.09472656 50.13330078 C-49.74609375 49.29296875 -49.74609375 49.29296875 -52 47 C-52.70644583 43.54956579 -52.56631548 40.252545 -52.375 36.75 C-52.34792969 35.81414063 -52.32085937 34.87828125 -52.29296875 33.9140625 C-52.22234523 31.6070276 -52.12380579 29.30469231 -52 27 C-48.55803445 27.67466933 -45.89364066 29.02558727 -42.84375 30.73828125 C-41.81894531 31.31255859 -40.79414062 31.88683594 -39.73828125 32.47851562 C-38.66964844 33.08373047 -37.60101563 33.68894531 -36.5 34.3125 C-35.49324219 34.87517578 -34.48648438 35.43785156 -33.44921875 36.01757812 C-31.25710794 37.25148514 -29.08315237 38.51800147 -26.92480469 39.81005859 C-23.94803187 41.55017263 -20.90635792 42.92716263 -17.73925781 44.28759766 C-4.42288543 50.42606196 -4.42288543 50.42606196 -1.96923828 56.58901978 C-0.51425927 63.95814068 -1.17344703 71.31573019 -1.75 78.75 C-1.85045928 81.00741728 -1.94169075 83.26526516 -2.0234375 85.5234375 C-2.24258026 91.0251067 -2.57577999 96.51053533 -3 102 C-1.02 101.01 -1.02 101.01 1 100 C1.33 83.5 1.66 67 2 50 C0.35 49.34 -1.3 48.68 -3 48 C-5.06889844 46.89284299 -7.11960612 45.75136409 -9.15625 44.5859375 C-9.73983276 44.25260406 -10.32341553 43.91927063 -10.92468262 43.57583618 C-12.1593355 42.8696537 -13.39308414 42.16188822 -14.62597656 41.45263672 C-16.46452968 40.39539682 -18.30619757 39.34376815 -20.1484375 38.29296875 C-23.16810164 36.56644782 -26.17690574 34.82219754 -29.17871094 33.06481934 C-30.41839192 32.34003802 -31.66001084 31.61856352 -32.90332031 30.90002441 C-34.7445699 29.83270017 -36.57628422 28.75059283 -38.40625 27.6640625 C-39.48197266 27.03193848 -40.55769531 26.39981445 -41.66601562 25.74853516 C-42.43623047 25.17151855 -43.20644531 24.59450195 -44 24 C-44 23.01 -44 22.02 -44 21 C-41.77812073 19.65304207 -39.54882537 18.32258204 -37.3125 17 C-36.68666016 16.6184375 -36.06082031 16.236875 -35.41601562 15.84375 C-31.71152545 13.67148351 -29.27173787 12.5507463 -25 13 C-22.57836914 14.07885742 -22.57836914 14.07885742 -20.03515625 15.60546875 C-19.07996094 16.16733887 -18.12476563 16.72920898 -17.140625 17.30810547 C-15.04740911 18.58614924 -12.96301713 19.87873393 -10.88671875 21.18408203 C-5.51284334 24.52100736 -0.59819677 27.29349991 5.47265625 29.13671875 C12.19675692 31.45897895 17.52146758 33.47703301 21 40 C24.45695658 55.34535611 22.3247593 72.47606585 21 88 C22.32 87.34 23.64 86.68 25 86 C25.33 69.5 25.66 53 26 36 C24.35 35.34 22.7 34.68 21 34 C18.94262934 32.89301986 16.90364906 31.7515256 14.87890625 30.5859375 C14.29769516 30.25260406 13.71648407 29.91927063 13.11766052 29.57583618 C11.26417098 28.51193495 9.41328868 27.4435914 7.5625 26.375 C6.35499175 25.68068681 5.1473107 24.98667405 3.93945312 24.29296875 C1.52536878 22.9060687 -0.8877716 21.51754655 -3.30029297 20.12792969 C-9.19146264 16.73670723 -15.0962309 13.36922287 -21 10 C-19.62885797 5.88657391 -16.89384232 4.79439521 -13.3125 2.75 C-12.69955078 2.37359375 -12.08660156 1.9971875 -11.45507812 1.609375 C-7.14860543 -0.87495283 -4.70911152 -1.62583382 0 0 Z " fill="#FC703D" transform="translate(57,7)"/>
<path d="M0 0 C3.17568542 1.65233922 5.37696485 3.75392971 7 7 C7.55258891 12.03671207 7.53929549 15.92140903 5.25 20.5 C2.63716455 23.40315049 0.70548913 24.76507574 -3.18359375 25.30078125 C-7.90921728 25.32535122 -11.29643664 25.26785002 -15 22 C-18.02400282 17.51613375 -18.96866022 13.28551557 -18 8 C-13.67486058 -0.05370789 -8.66690158 -1.24872619 0 0 Z " fill="#0F1417" transform="translate(216,49)"/>
<path d="M0 0 C3.53214485 2.01836849 5.80160052 4.07796533 7 8 C7.4477318 13.55187433 7.29052206 17.28358505 4 22 C-0.13518244 24.95370174 -3.92067767 25.53089776 -8.8828125 25.35546875 C-12.13931177 24.80871334 -13.80258077 23.39718461 -16 21 C-18.68100029 16.53166618 -18.80768734 12.07803424 -18 7 C-13.89880795 -0.60778749 -7.89415807 -0.83276523 0 0 Z " fill="#0E1316" transform="translate(316,49)"/>
<path d="M0 0 C14.48782138 -0.44350474 14.48782138 -0.44350474 19 3 C21.42166168 5.90599402 21.96330364 7.66361668 22.375 11.4375 C21.82281783 16.68323058 20.34831373 19.65168627 16.625 23.375 C11.05028272 25.8740112 6.07287148 25.24787231 0 25 C0 16.75 0 8.5 0 0 Z " fill="#181D1F" transform="translate(199,14)"/>
<path d="M0 0 C12.27980769 -0.49615385 12.27980769 -0.49615385 15.92578125 2.015625 C16.61027344 2.67046875 17.29476563 3.3253125 18 4 C17.835 4.928125 17.67 5.85625 17.5 6.8125 C16.70049416 11.7017878 16.70049416 11.7017878 19 16 C18.84203798 19.08025945 18.24711832 20.66910254 16.3984375 23.14453125 C11.76100429 26.73212209 5.5986076 25.20735584 0 25 C0 16.75 0 8.5 0 0 Z " fill="#171C1E" transform="translate(410,49)"/>
<path d="M0 0 C1.65 0 3.3 0 5 0 C5.20496094 0.99902344 5.40992188 1.99804688 5.62109375 3.02734375 C5.89050781 4.31769531 6.15992188 5.60804687 6.4375 6.9375 C6.70433594 8.22527344 6.97117188 9.51304688 7.24609375 10.83984375 C7.67181616 13.84638879 7.67181616 13.84638879 9 15 C10.32 10.05 11.64 5.1 13 0 C14.98 0 16.96 0 19 0 C19.50404808 2.10320063 20.00310508 4.20759791 20.5 6.3125 C20.7784375 7.48425781 21.056875 8.65601563 21.34375 9.86328125 C22 13 22 13 22 16 C22.66 16 23.32 16 24 16 C24.04898438 15.34773438 24.09796875 14.69546875 24.1484375 14.0234375 C24.57242229 9.06720147 25.15665573 4.66980549 27 0 C28.65 0 30.3 0 32 0 C30.02 8.25 28.04 16.5 26 25 C24.02 25 22.04 25 20 25 C18.68 19.72 17.36 14.44 16 9 C14.35 14.28 12.7 19.56 11 25 C9.35 25 7.7 25 6 25 C0 8.14285714 0 8.14285714 0 0 Z " fill="#151A1D" transform="translate(136,14)"/>
<path d="M0 0 C6 0 6 0 7.59912109 1.37695312 C8.18040771 2.31958008 8.18040771 2.31958008 8.7734375 3.28125 C9.20527344 3.95800781 9.63710937 4.63476562 10.08203125 5.33203125 C10.72205078 6.40517578 10.72205078 6.40517578 11.375 7.5 C11.82488281 8.21542969 12.27476562 8.93085937 12.73828125 9.66796875 C13.84465791 11.43346341 14.92491676 13.21527684 16 15 C16.33 10.05 16.66 5.1 17 0 C18.65 0 20.3 0 22 0 C22 8.25 22 16.5 22 25 C16 25 16 25 14.40087891 23.53125 C13.81959229 22.52578125 13.81959229 22.52578125 13.2265625 21.5 C12.79472656 20.778125 12.36289063 20.05625 11.91796875 19.3125 C11.49128906 18.549375 11.06460938 17.78625 10.625 17 C10.17511719 16.236875 9.72523438 15.47375 9.26171875 14.6875 C8.1546716 12.80316443 7.07467588 10.90298337 6 9 C5.67 14.28 5.34 19.56 5 25 C3.35 25 1.7 25 0 25 C0 16.75 0 8.5 0 0 Z " fill="#1B1F22" transform="translate(173,49)"/>
<path d="M0 0 C6 0 6 0 7.59912109 1.37695312 C8.18040771 2.31958008 8.18040771 2.31958008 8.7734375 3.28125 C9.20527344 3.95800781 9.63710938 4.63476562 10.08203125 5.33203125 C10.72205078 6.40517578 10.72205078 6.40517578 11.375 7.5 C11.82488281 8.21542969 12.27476562 8.93085937 12.73828125 9.66796875 C13.84465791 11.43346341 14.92491676 13.21527684 16 15 C16.33 10.05 16.66 5.1 17 0 C18.65 0 20.3 0 22 0 C22 8.25 22 16.5 22 25 C20.35 25 18.7 25 17 25 C14.8671875 22.76953125 14.8671875 22.76953125 12.875 19.8125 C11.88113281 18.36810547 11.88113281 18.36810547 10.8671875 16.89453125 C9.19139329 14.29669964 7.59053393 11.65088988 6 9 C5.67 14.28 5.34 19.56 5 25 C3.35 25 1.7 25 0 25 C0 16.75 0 8.5 0 0 Z " fill="#1B1F22" transform="translate(326,49)"/>
<path d="M0 0 C6 0 6 0 7.59912109 1.37695312 C8.18040771 2.31958008 8.18040771 2.31958008 8.7734375 3.28125 C9.20527344 3.95800781 9.63710938 4.63476562 10.08203125 5.33203125 C10.72205078 6.40517578 10.72205078 6.40517578 11.375 7.5 C11.82488281 8.21542969 12.27476562 8.93085938 12.73828125 9.66796875 C13.84465791 11.43346341 14.92491676 13.21527684 16 15 C16.33 10.05 16.66 5.1 17 0 C18.32 0 19.64 0 21 0 C21 8.25 21 16.5 21 25 C16 25 16 25 14.5144043 23.53125 C14.12164307 22.8609375 13.72888184 22.190625 13.32421875 21.5 C12.88916016 20.778125 12.45410156 20.05625 12.00585938 19.3125 C11.57080078 18.549375 11.13574219 17.78625 10.6875 17 C10.23310547 16.236875 9.77871094 15.47375 9.31054688 14.6875 C8.19062327 12.80131287 7.09313287 10.90183893 6 9 C5.67 14.28 5.34 19.56 5 25 C3.35 25 1.7 25 0 25 C0 16.75 0 8.5 0 0 Z " fill="#13181B" transform="translate(375,14)"/>
<path d="M0 0 C6 0 6 0 7.59912109 1.37695312 C8.18040771 2.31958008 8.18040771 2.31958008 8.7734375 3.28125 C9.20527344 3.95800781 9.63710937 4.63476562 10.08203125 5.33203125 C10.72205078 6.40517578 10.72205078 6.40517578 11.375 7.5 C11.82488281 8.21542969 12.27476562 8.93085937 12.73828125 9.66796875 C13.84465791 11.43346341 14.92491676 13.21527684 16 15 C16.33 10.05 16.66 5.1 17 0 C18.32 0 19.64 0 21 0 C21 8.25 21 16.5 21 25 C16 25 16 25 14.5144043 23.53125 C14.12164307 22.8609375 13.72888184 22.190625 13.32421875 21.5 C12.88916016 20.778125 12.45410156 20.05625 12.00585938 19.3125 C11.57080078 18.549375 11.13574219 17.78625 10.6875 17 C10.23310547 16.236875 9.77871094 15.47375 9.31054688 14.6875 C8.19062327 12.80131287 7.09313287 10.90183893 6 9 C5.67 14.28 5.34 19.56 5 25 C3.35 25 1.7 25 0 25 C0 16.75 0 8.5 0 0 Z " fill="#12171A" transform="translate(147,49)"/>
<path d="M0 0 C1.4540625 0.0309375 1.4540625 0.0309375 2.9375 0.0625 C4.44298369 3.85201244 5.94095314 7.64445031 7.4375 11.4375 C7.86675781 12.51773437 8.29601562 13.59796875 8.73828125 14.7109375 C9.34736328 16.2578125 9.34736328 16.2578125 9.96875 17.8359375 C10.34580078 18.78903809 10.72285156 19.74213867 11.11132812 20.72412109 C11.9375 23.0625 11.9375 23.0625 11.9375 25.0625 C9.9575 25.0625 7.9775 25.0625 5.9375 25.0625 C5.6075 23.0825 5.2775 21.1025 4.9375 19.0625 C1.3075 19.0625 -2.3225 19.0625 -6.0625 19.0625 C-6.3925 21.0425 -6.7225 23.0225 -7.0625 25.0625 C-8.7125 25.0625 -10.3625 25.0625 -12.0625 25.0625 C-11.45798416 21.7229186 -10.64296964 18.63587824 -9.46875 15.453125 C-9.16066406 14.61652344 -8.85257812 13.77992187 -8.53515625 12.91796875 C-8.21417969 12.05816406 -7.89320313 11.19835937 -7.5625 10.3125 C-7.08103516 8.99958984 -7.08103516 8.99958984 -6.58984375 7.66015625 C-3.78001409 0.07714314 -3.78001409 0.07714314 0 0 Z " fill="#161A1D" transform="translate(275.0625,13.9375)"/>
<path d="M0 0 C1.4540625 0.0309375 1.4540625 0.0309375 2.9375 0.0625 C4.44298369 3.85201244 5.94095314 7.64445031 7.4375 11.4375 C7.86675781 12.51773437 8.29601562 13.59796875 8.73828125 14.7109375 C9.34736328 16.2578125 9.34736328 16.2578125 9.96875 17.8359375 C10.34580078 18.78903809 10.72285156 19.74213867 11.11132812 20.72412109 C11.9375 23.0625 11.9375 23.0625 11.9375 25.0625 C10.2875 25.0625 8.6375 25.0625 6.9375 25.0625 C6.2775 23.0825 5.6175 21.1025 4.9375 19.0625 C-0.0125 19.5575 -0.0125 19.5575 -5.0625 20.0625 C-6.0525 22.5375 -6.0525 22.5375 -7.0625 25.0625 C-8.7125 25.0625 -10.3625 25.0625 -12.0625 25.0625 C-11.45798416 21.7229186 -10.64296964 18.63587824 -9.46875 15.453125 C-9.16066406 14.61652344 -8.85257813 13.77992187 -8.53515625 12.91796875 C-8.21417969 12.05816406 -7.89320313 11.19835937 -7.5625 10.3125 C-7.08103516 8.99958984 -7.08103516 8.99958984 -6.58984375 7.66015625 C-3.78001409 0.07714314 -3.78001409 0.07714314 0 0 Z " fill="#14191C" transform="translate(178.0625,13.9375)"/>
<path d="M0 0 C1.98 0 3.96 0 6 0 C15 21.1352459 15 21.1352459 15 25 C13.35 25 11.7 25 10 25 C9.34 23.35 8.68 21.7 8 20 C4.7 20 1.4 20 -2 20 C-2.99 22.475 -2.99 22.475 -4 25 C-5.65 25 -7.3 25 -9 25 C-6.68860831 16.38296958 -3.39204534 8.23311977 0 0 Z " fill="#13181B" transform="translate(252,49)"/>
<path d="M0 0 C1.4540625 0.0309375 1.4540625 0.0309375 2.9375 0.0625 C4.28175253 3.47497084 5.61097169 6.89310439 6.9375 10.3125 C7.3190625 11.28058594 7.700625 12.24867187 8.09375 13.24609375 C8.4546875 14.18066406 8.815625 15.11523438 9.1875 16.078125 C9.52265625 16.93696289 9.8578125 17.79580078 10.203125 18.68066406 C10.9375 21.0625 10.9375 21.0625 10.9375 25.0625 C9.2875 25.0625 7.6375 25.0625 5.9375 25.0625 C5.6075 23.0825 5.2775 21.1025 4.9375 19.0625 C1.3075 19.0625 -2.3225 19.0625 -6.0625 19.0625 C-6.3925 21.0425 -6.7225 23.0225 -7.0625 25.0625 C-8.7125 25.0625 -10.3625 25.0625 -12.0625 25.0625 C-11.42440624 19.57666613 -9.59399832 14.83690444 -7.5625 9.75 C-7.08103516 8.51540039 -7.08103516 8.51540039 -6.58984375 7.25585938 C-3.76081353 0.0767513 -3.76081353 0.0767513 0 0 Z " fill="#13181B" transform="translate(233.0625,13.9375)"/>
<path d="M0 0 C3.63659344 2.08910687 4.73903481 3.35380047 6.3125 7.25 C6.539375 8.1575 6.76625 9.065 7 10 C4.1875 10.3125 4.1875 10.3125 1 10 C0.525625 9.175 0.05125 8.35 -0.4375 7.5 C-0.953125 6.675 -1.46875 5.85 -2 5 C-5.45914297 4.50583672 -7.7930558 4.37706106 -10.9375 6 C-12.64549274 9.21504517 -12.55117118 12.48805027 -12 16 C-10.66169042 18.4595774 -10.66169042 18.4595774 -9 20 C-4.94914321 19.75368443 -4.94914321 19.75368443 -1 19 C0.5899433 17.07935207 0.5899433 17.07935207 1 15 C2.65 15 4.3 15 6 15 C5.52153935 19.30614589 4.34073619 21.24880549 1 24 C-3.71571999 25.57190666 -7.54818499 25.50255135 -12.25 23.875 C-15.70331341 21.52046813 -16.67859682 19.96420954 -18 16 C-18.61988875 12.15668977 -18.89436558 8.67161186 -17.015625 5.16015625 C-12.06885759 -1.08437422 -7.39299641 -1.80864376 0 0 Z " fill="#12171A" transform="translate(418,14)"/>
<path d="M0 0 C3.125 2.3125 3.125 2.3125 5 5 C5 5.99 5 6.98 5 8 C2.625 8.1875 2.625 8.1875 0 8 C-0.66 7.01 -1.32 6.02 -2 5 C-5.08365871 4.7497843 -5.08365871 4.7497843 -8 5 C-7.67 6.32 -7.34 7.64 -7 9 C-5.7625 9.268125 -4.525 9.53625 -3.25 9.8125 C2.83893557 11.38871382 2.83893557 11.38871382 5 14 C5.73684211 19.89473684 5.73684211 19.89473684 3.75 22.875 C-0.21761051 25.42560675 -4.37240798 25.40592912 -9 25 C-11.98356441 23.18391731 -13.61660986 22.06169578 -14.8125 18.75 C-14.9053125 17.88375 -14.9053125 17.88375 -15 17 C-12.625 16.8125 -12.625 16.8125 -10 17 C-9.34 17.99 -8.68 18.98 -8 20 C-6.02252878 20.36297936 -6.02252878 20.36297936 -3.875 20.1875 C-2.59625 20.125625 -1.3175 20.06375 0 20 C-0.11940086 18.02274295 -0.11940086 18.02274295 -1 16 C-3.21728321 14.96466921 -3.21728321 14.96466921 -5.875 14.4375 C-9.45961393 13.59621306 -11.72862084 12.99910258 -14 10 C-14.51924297 6.51365432 -14.39852706 4.68836492 -12.625 1.625 C-8.55817879 -0.89255599 -4.64742138 -0.88593816 0 0 Z " fill="#13171A" transform="translate(310,14)"/>
<path d="M0 0 C3.78959324 2.01080458 4.71078061 3.28383771 6.3125 7.25 C6.539375 8.1575 6.76625 9.065 7 10 C4.75 10.3125 4.75 10.3125 2 10 C1.071875 8.7625 1.071875 8.7625 0.125 7.5 C-1.84676774 4.61917043 -1.84676774 4.61917043 -5.5625 4.5 C-8.84514374 4.78677715 -8.84514374 4.78677715 -10.9375 6 C-12.64549274 9.21504517 -12.55117118 12.48805027 -12 16 C-10.66169042 18.4595774 -10.66169042 18.4595774 -9 20 C-4.94914321 19.75368443 -4.94914321 19.75368443 -1 19 C0.5899433 17.07935207 0.5899433 17.07935207 1 15 C2.65 15 4.3 15 6 15 C5.52153935 19.30614589 4.34073619 21.24880549 1 24 C-3.79402863 25.59800954 -8.15242551 25.73902979 -12.8125 23.875 C-16.61208654 20.61821154 -17.8471471 17.42662704 -18.375 12.5 C-17.88015341 7.88143179 -16.67681828 4.55836754 -13.23046875 1.35546875 C-9.13886922 -1.13101993 -4.62241675 -0.61037847 0 0 Z " fill="#0F1316" transform="translate(335,14)"/>
<path d="M0 0 C1.65 0 3.3 0 5 0 C5 3.3 5 6.6 5 10 C8.96 10 12.92 10 17 10 C17 6.7 17 3.4 17 0 C18.32 0 19.64 0 21 0 C21 8.25 21 16.5 21 25 C19.68 25 18.36 25 17 25 C17 21.37 17 17.74 17 14 C13.04 14 9.08 14 5 14 C5 17.63 5 21.26 5 25 C3.35 25 1.7 25 0 25 C0 16.75 0 8.5 0 0 Z " fill="#0F1416" transform="translate(359,49)"/>
<path d="M0 0 C5.28 0 10.56 0 16 0 C16 1.32 16 2.64 16 4 C12.37 4 8.74 4 5 4 C5 5.98 5 7.96 5 10 C8.3 10 11.6 10 15 10 C15 11.32 15 12.64 15 14 C11.7 14 8.4 14 5 14 C5 15.98 5 17.96 5 20 C8.96 20 12.92 20 17 20 C17 21.65 17 23.3 17 25 C11.39 25 5.78 25 0 25 C0 16.75 0 8.5 0 0 Z " fill="#12171A" transform="translate(428,14)"/>
<path d="M0 0 C5.28 0 10.56 0 16 0 C16 1.32 16 2.64 16 4 C12.37 4 8.74 4 5 4 C5 5.98 5 7.96 5 10 C8.3 10 11.6 10 15 10 C15 11.32 15 12.64 15 14 C11.7 14 8.4 14 5 14 C5 15.98 5 17.96 5 20 C8.63 20 12.26 20 16 20 C16 21.65 16 23.3 16 25 C10.72 25 5.44 25 0 25 C0 16.75 0 8.5 0 0 Z " fill="#111618" transform="translate(355,14)"/>
<path d="M0 0 C1.65 0 3.3 0 5 0 C5.06058594 1.27617188 5.12117188 2.55234375 5.18359375 3.8671875 C5.26799568 5.53647016 5.35264386 7.20574037 5.4375 8.875 C5.47681641 9.71675781 5.51613281 10.55851562 5.55664062 11.42578125 C5.59853516 12.23144531 5.64042969 13.03710938 5.68359375 13.8671875 C5.72025146 14.61081543 5.75690918 15.35444336 5.79467773 16.12060547 C5.89955865 18.08864312 5.89955865 18.08864312 7 20 C9.91652174 20.16681109 9.91652174 20.16681109 13 20 C15.35358251 17.64641749 15.27871904 17.07031606 15.4140625 13.8671875 C15.45273437 13.06152344 15.49140625 12.25585938 15.53125 11.42578125 C15.57765625 10.16314453 15.57765625 10.16314453 15.625 8.875 C15.68300781 7.60076172 15.68300781 7.60076172 15.7421875 6.30078125 C15.83656494 4.20088316 15.91937586 2.10047109 16 0 C17.32 0 18.64 0 20 0 C20.08728882 3.24983 20.14048658 6.4993575 20.1875 9.75 C20.21263672 10.67039062 20.23777344 11.59078125 20.26367188 12.5390625 C20.27333984 13.42851563 20.28300781 14.31796875 20.29296875 15.234375 C20.3086792 16.05131836 20.32438965 16.86826172 20.34057617 17.70996094 C19.91428604 20.57634189 18.97845159 21.90840308 17 24 C13.28722262 25.23759246 9.85812154 25.55653215 6 25 C2.55687286 22.8755173 1.28382453 21.85147359 0 18 C-0.08021999 16.59175107 -0.10765977 15.18002769 -0.09765625 13.76953125 C-0.09282227 12.56586914 -0.09282227 12.56586914 -0.08789062 11.33789062 C-0.07951172 10.50451172 -0.07113281 9.67113281 -0.0625 8.8125 C-0.05798828 7.96751953 -0.05347656 7.12253906 -0.04882812 6.25195312 C-0.03705403 4.16793845 -0.0191189 2.08396023 0 0 Z " fill="#0C1114" transform="translate(385,49)"/>
<path d="M0 0 C1.65 0 3.3 0 5 0 C5.83919398 2.26882087 6.67151724 4.53977027 7.5 6.8125 C7.85771484 7.77639648 7.85771484 7.77639648 8.22265625 8.75976562 C9.27068746 11.64933739 10 13.90076061 10 17 C10.66 17 11.32 17 12 17 C12.0825 16.236875 12.165 15.47375 12.25 14.6875 C13.28777865 9.5850883 15.14287032 4.8544506 17 0 C18.65 0 20.3 0 22 0 C19.85406445 8.54884894 17.0505873 16.74050475 14 25 C12.02 25 10.04 25 8 25 C6.65882147 21.39870379 5.3284161 17.79352141 4 14.1875 C3.6184375 13.16333984 3.236875 12.13917969 2.84375 11.08398438 C2.4828125 10.10107422 2.121875 9.11816406 1.75 8.10546875 C1.41484375 7.19949951 1.0796875 6.29353027 0.734375 5.36010742 C0 3 0 3 0 0 Z " fill="#12171A" transform="translate(224,49)"/>
<path d="M0 0 C2.4375 1.5625 2.4375 1.5625 4 4 C4.63811961 9.01379692 3.98624355 11.93870877 1 16 C0 17 0 17 -3.3125 17.3125 C-7 17 -7 17 -9.4375 15.5625 C-11.75587974 11.76035723 -11.77201236 8.33759522 -11 4 C-8.21093968 -0.57405892 -5.10245628 -0.72892233 0 0 Z " fill="#F6F6F7" transform="translate(314,53)"/>
<path d="M0 0 C2.4375 1.5 2.4375 1.5 4 4 C4.58975745 8.64433992 4.5509049 10.87523583 2.5 15.0625 C-0.23776875 17.18427078 -0.77228211 17.30487332 -4.0625 17.0625 C-6.65672921 16.53109364 -7.88529566 16.08961277 -10 14.4375 C-11.45225615 10.89762562 -11.67913753 7.7661263 -11 4 C-8.16250305 -0.53999512 -5.10870514 -0.72981502 0 0 Z " fill="#F8F8F8" transform="translate(214,53)"/>
<path d="M0 0 C6.93 0 13.86 0 21 0 C21 1.32 21 2.64 21 4 C18.36 4 15.72 4 13 4 C13 10.93 13 17.86 13 25 C11.35 25 9.7 25 8 25 C8 18.07 8 11.14 8 4 C5.36 4 2.72 4 0 4 C0 2.68 0 1.36 0 0 Z " fill="#0D1215" transform="translate(243,14)"/>
<path d="M0 0 C1.32 0 2.64 0 4 0 C4.0809313 2.60478883 4.14045434 5.20706653 4.1875 7.8125 C4.22520508 8.91948242 4.22520508 8.91948242 4.26367188 10.04882812 C4.33737913 15.47859589 4.33737913 15.47859589 2.7109375 17.9921875 C-0.15573646 19.68077627 -2.77306233 19.29335797 -6 19 C-6.66 18.34 -7.32 17.68 -8 17 C-8 16.01 -8 15.02 -8 14 C-7.34 14 -6.68 14 -6 14 C-5.67 14.66 -5.34 15.32 -5 16 C-3.35 16 -1.7 16 0 16 C0 15.01 0 14.02 0 13 C-1.3921875 13.12375 -1.3921875 13.12375 -2.8125 13.25 C-6 13 -6 13 -7.875 11.375 C-9.31414524 8.33680449 -9.42454541 6.32560568 -9 3 C-6.75934517 -0.73442472 -4.04881658 -0.24788673 0 0 Z " fill="#989B9B" transform="translate(243,95)"/>
<path d="M0 0 C6.6 0 13.2 0 20 0 C20 1.32 20 2.64 20 4 C17.69 4 15.38 4 13 4 C13 10.93 13 17.86 13 25 C11.35 25 9.7 25 8 25 C8 18.07 8 11.14 8 4 C5.36 4 2.72 4 0 4 C0 2.68 0 1.36 0 0 Z " fill="#12171A" transform="translate(266,49)"/>
<path d="M0 0 C9.04 0 9.04 0 13 3 C13.33 3.33 13.66 3.66 14 4 C13.4 10.6 13.4 10.6 11 13 C8.31160615 13.26991906 5.70858064 13.08737357 3 13 C3 15.31 3 17.62 3 20 C2.01 20 1.02 20 0 20 C0 13.4 0 6.8 0 0 Z " fill="#9D9F9F" transform="translate(137,89)"/>
<path d="M0 0 C7 0 7 0 10 1.9375 C12.45490835 5.69657841 12.4196772 7.65561009 11.63671875 11.97265625 C11 14 11 14 9.375 16.0625 C7 17 7 17 0 17 C0 11.39 0 5.78 0 0 Z " fill="#EBEBEB" transform="translate(204,18)"/>
<path d="M0 0 C1.875 1.125 1.875 1.125 3 3 C3.50030235 6.93094707 3.5996142 9.1005787 1.375 12.4375 C-1.7370662 14.48491197 -3.34394496 14.68551032 -7 14 C-9.4375 11.9375 -9.4375 11.9375 -11 9 C-11 5.16249192 -10.81388154 2.96460035 -8.3125 0 C-5.12832007 -1.37694267 -3.29075199 -0.980224 0 0 Z " fill="#A3A6A6" transform="translate(163,95)"/>
<path d="M0 0 C1.89355469 0.28173828 1.89355469 0.28173828 4 1 C5.29437238 3.65405713 6.30440845 6.10094316 7.25 8.875 C7.518125 9.60847656 7.78625 10.34195313 8.0625 11.09765625 C9.16028874 14.17258492 10 16.71299088 10 20 C9.01 20 8.02 20 7 20 C6.67 18.35 6.34 16.7 6 15 C3.03 15 0.06 15 -3 15 C-3.33 16.65 -3.66 18.3 -4 20 C-4.99 20 -5.98 20 -7 20 C-6.29937517 15.43263559 -4.68729793 11.4300495 -2.9375 7.1875 C-2.51500977 6.14819336 -2.51500977 6.14819336 -2.08398438 5.08789062 C-1.39325027 3.39032376 -0.69716272 1.69493688 0 0 Z " fill="#9C9E9E" transform="translate(297,89)"/>
<path d="M0 0 C0.99 0 1.98 0 3 0 C3.66 2.64 4.32 5.28 5 8 C5.99 5.36 6.98 2.72 8 0 C9.32 0 10.64 0 12 0 C12.66 1.98 13.32 3.96 14 6 C14.99 4.02 15.98 2.04 17 0 C17.99 0.33 18.98 0.66 20 1 C18.68 5.29 17.36 9.58 16 14 C15.01 14 14.02 14 13 14 C12.01 11.36 11.02 8.72 10 6 C9.01 8.64 8.02 11.28 7 14 C6.01 14 5.02 14 4 14 C3.32739649 12.23141309 2.66211605 10.46003984 2 8.6875 C1.62875 7.70136719 1.2575 6.71523437 0.875 5.69921875 C0 3 0 3 0 0 Z " fill="#9C9F9F" transform="translate(167,95)"/>
<path d="M0 0 C2.5625 0.3125 2.5625 0.3125 4.2109375 1.4453125 C6.16378275 4.14317386 5.85597549 6.21475975 5.75 9.5 C5.72292969 10.58667969 5.69585937 11.67335938 5.66796875 12.79296875 C5.63316406 13.62441406 5.59835937 14.45585938 5.5625 15.3125 C4.2425 15.3125 2.9225 15.3125 1.5625 15.3125 C0.015625 15.374375 0.015625 15.374375 -1.5625 15.4375 C-4.4375 15.3125 -4.4375 15.3125 -6.4375 13.3125 C-5.88194444 8.75694444 -5.88194444 8.75694444 -4.4375 7.3125 C-2.10452567 7.27157063 0.22955225 7.27008277 2.5625 7.3125 C2.5625 5.9925 2.5625 4.6725 2.5625 3.3125 C0.08983235 3.65694881 0.08983235 3.65694881 -2.4375 4.3125 C-2.7675 4.9725 -3.0975 5.6325 -3.4375 6.3125 C-4.0975 6.3125 -4.7575 6.3125 -5.4375 6.3125 C-4.69883196 2.6191598 -4.09013702 0.52437654 0 0 Z " fill="#A4A7A7" transform="translate(261.4375,93.6875)"/>
<path d="M0 0 C1.65 0 3.3 0 5 0 C5 8.25 5 16.5 5 25 C3.35 25 1.7 25 0 25 C0 16.75 0 8.5 0 0 Z " fill="#171C1E" transform="translate(289,49)"/>
<path d="M0 0 C1.65 0 3.3 0 5 0 C5 8.25 5 16.5 5 25 C3.35 25 1.7 25 0 25 C0 16.75 0 8.5 0 0 Z " fill="#0E1316" transform="translate(345,14)"/>
<path d="M0 0 C2.93350464 0.93622488 4.24432227 1.39773341 5.9375 3.9375 C5.9375 5.2575 5.9375 6.5775 5.9375 7.9375 C2.6375 7.9375 -0.6625 7.9375 -4.0625 7.9375 C-3.7325 9.2575 -3.4025 10.5775 -3.0625 11.9375 C-1.0825 11.9375 0.8975 11.9375 2.9375 11.9375 C2.9375 11.2775 2.9375 10.6175 2.9375 9.9375 C3.9275 9.9375 4.9175 9.9375 5.9375 9.9375 C4.1875 13.8125 4.1875 13.8125 1.9375 14.9375 C-3.23681193 15.37786697 -3.23681193 15.37786697 -5.9375 13.9375 C-7.74969102 10.71582708 -7.69610845 7.48285963 -7.0625 3.9375 C-4.91639998 0.55326535 -4.02906322 -0.08222578 0 0 Z " fill="#969999" transform="translate(195.0625,94.0625)"/>
<path d="M0 0 C2.93350464 0.93622488 4.24432227 1.39773341 5.9375 3.9375 C5.9375 5.2575 5.9375 6.5775 5.9375 7.9375 C2.6375 7.9375 -0.6625 7.9375 -4.0625 7.9375 C-3.4025 9.2575 -2.7425 10.5775 -2.0625 11.9375 C-0.7425 11.9375 0.5775 11.9375 1.9375 11.9375 C2.2675 11.2775 2.5975 10.6175 2.9375 9.9375 C3.9275 9.9375 4.9175 9.9375 5.9375 9.9375 C4.0625 13.8125 4.0625 13.8125 2.9375 14.9375 C-0.58621092 15.32902344 -2.43866451 15.34791808 -5.4375 13.375 C-7.68590519 10.00239221 -7.63033945 7.91237617 -7.0625 3.9375 C-4.8988567 0.608818 -4.00217367 -0.08167701 0 0 Z " fill="#A1A4A4" transform="translate(393.0625,94.0625)"/>
<path d="M0 0 C3.96 0 7.92 0 12 0 C12 0.99 12 1.98 12 3 C9.03 3 6.06 3 3 3 C3 4.98 3 6.96 3 9 C5.64 9 8.28 9 11 9 C11 9.99 11 10.98 11 12 C8.36 12 5.72 12 3 12 C3 14.64 3 17.28 3 20 C2.01 20 1.02 20 0 20 C0 13.4 0 6.8 0 0 Z " fill="#A1A3A3" transform="translate(322,89)"/>
<path d="M0 0 C1.32 0 2.64 0 4 0 C4 8.25 4 16.5 4 25 C2.68 25 1.36 25 0 25 C0 16.75 0 8.5 0 0 Z " fill="#050A0D" transform="translate(138,49)"/>
<path d="M0 0 C0.99 0 1.98 0 3 0 C3 3.63 3 7.26 3 11 C4.65 10.67 6.3 10.34 8 10 C8.33 6.7 8.66 3.4 9 0 C9.99 0 10.98 0 12 0 C12 4.62 12 9.24 12 14 C10.39125 14.061875 8.7825 14.12375 7.125 14.1875 C5.76761719 14.23970703 5.76761719 14.23970703 4.3828125 14.29296875 C3.20332031 14.14794922 3.20332031 14.14794922 2 14 C-0.28062828 10.57905758 -0.21925007 9.31812778 -0.125 5.3125 C-0.10695313 4.31863281 -0.08890625 3.32476562 -0.0703125 2.30078125 C-0.04710937 1.54152344 -0.02390625 0.78226562 0 0 Z " fill="#9C9F9F" transform="translate(336,95)"/>
<path d="M0 0 C1.32 0.33 2.64 0.66 4 1 C4.845625 0.79375 5.69125 0.5875 6.5625 0.375 C9 0 9 0 10.640625 1.08984375 C12.5840933 3.82075179 12.29427193 5.87757016 12.1875 9.1875 C12.16042969 10.27417969 12.13335937 11.36085938 12.10546875 12.48046875 C12.07066406 13.31191406 12.03585937 14.14335938 12 15 C11.34 15 10.68 15 10 15 C9.67 11.7 9.34 8.4 9 5 C7.35 4.67 5.7 4.34 4 4 C3.67 7.63 3.34 11.26 3 15 C2.01 15 1.02 15 0 15 C0 10.05 0 5.1 0 0 Z " fill="#9EA1A1" transform="translate(270,94)"/>
<path d="M0 0 C0.99 0 1.98 0 3 0 C3 4.95 3 9.9 3 15 C1.68 14.67 0.36 14.34 -1 14 C-1.33 14.33 -1.66 14.66 -2 15 C-4.4375 15.1875 -4.4375 15.1875 -7 15 C-9 13 -9 13 -9.1953125 10.1796875 C-9.17210937 9.08914062 -9.14890625 7.99859375 -9.125 6.875 C-9.10695313 5.77929688 -9.08890625 4.68359375 -9.0703125 3.5546875 C-9.04710937 2.71164063 -9.02390625 1.86859375 -9 1 C-8.34 1 -7.68 1 -7 1 C-6.67 4.3 -6.34 7.6 -6 11 C-4.35 11 -2.7 11 -1 11 C-0.67 7.37 -0.34 3.74 0 0 Z " fill="#A5A8A8" transform="translate(371,94)"/>
<path d="M0 0 C1.32 0 2.64 0 4 0 C5.546875 -0.061875 5.546875 -0.061875 7.125 -0.125 C10 0 10 0 12 2 C12.1953125 4.8203125 12.1953125 4.8203125 12.125 8.125 C12.10695312 9.22070312 12.08890625 10.31640625 12.0703125 11.4453125 C12.04710937 12.28835937 12.02390625 13.13140625 12 14 C11.01 14 10.02 14 9 14 C8.67 10.37 8.34 6.74 8 3 C6.35 3.33 4.7 3.66 3 4 C2.67 7.3 2.34 10.6 2 14 C1.34 14 0.68 14 0 14 C0 9.38 0 4.76 0 0 Z " fill="#9DA0A0" transform="translate(220,95)"/>
<path d="M0 0 C0.66 0 1.32 0 2 0 C2.0809313 2.60478883 2.14045434 5.20706653 2.1875 7.8125 C2.22520508 8.91948242 2.22520508 8.91948242 2.26367188 10.04882812 C2.33737913 15.47859589 2.33737913 15.47859589 0.7109375 17.9921875 C-2.15573646 19.68077627 -4.77306233 19.29335797 -8 19 C-8.66 18.34 -9.32 17.68 -10 17 C-10 16.01 -10 15.02 -10 14 C-9.34 14 -8.68 14 -8 14 C-7.67 14.66 -7.34 15.32 -7 16 C-5.35 16 -3.7 16 -2 16 C-1.34 14.35 -0.68 12.7 0 11 C-0.66 10.67 -1.32 10.34 -2 10 C-1.34 6.7 -0.68 3.4 0 0 Z " fill="#979A9A" transform="translate(245,95)"/>
<path d="M0 0 C4.55555556 0.55555556 4.55555556 0.55555556 6 2 C6.125 5 6.125 5 6 8 C5 9 5 9 1.9375 9.0625 C0.968125 9.041875 -0.00125 9.02125 -1 9 C-1.625 5.625 -1.625 5.625 -2 2 C-1.34 1.34 -0.68 0.68 0 0 Z " fill="#FCFCFC" transform="translate(157,97)"/>
<path d="M0 0 C0.66 0 1.32 0 2 0 C2 1.32 2 2.64 2 4 C4.31 4 6.62 4 9 4 C9 4.33 9 4.66 9 5 C6.69 5 4.38 5 2 5 C2.66 6.32 3.32 7.64 4 9 C5.32 9 6.64 9 8 9 C8.33 8.34 8.66 7.68 9 7 C9.99 7 10.98 7 12 7 C10.125 10.875 10.125 10.875 9 12 C5.47628908 12.39152344 3.62383549 12.41041808 0.625 10.4375 C-1.56007535 7.15988698 -1.36395977 4.85797355 -1 1 C-0.67 0.67 -0.34 0.34 0 0 Z " fill="#9A9C9C" transform="translate(387,97)"/>
<path d="M0 0 C2.33944736 0.28730055 4.6739143 0.61936779 7 1 C7.04254356 2.99954746 7.04080783 5.00041636 7 7 C6 8 6 8 3.0625 8.1875 C0 8 0 8 -2 6 C-1.44444444 1.44444444 -1.44444444 1.44444444 0 0 Z " fill="#A2A4A4" transform="translate(257,101)"/>
<path d="M0 0 C0.66 0 1.32 0 2 0 C2 1.32 2 2.64 2 4 C3.32 4 4.64 4 6 4 C6 4.66 6 5.32 6 6 C4.68 6 3.36 6 2 6 C2.103125 7.27875 2.20625 8.5575 2.3125 9.875 C2.37050781 10.59429687 2.42851562 11.31359375 2.48828125 12.0546875 C2.87393036 14.39519216 2.87393036 14.39519216 6 16 C6 16.66 6 17.32 6 18 C4.33388095 18.042721 2.66617115 18.04063832 1 18 C0 17 0 17 -0.09765625 14.49609375 C-0.08605469 13.48675781 -0.07445312 12.47742188 -0.0625 11.4375 C-0.05347656 10.42558594 -0.04445313 9.41367188 -0.03515625 8.37109375 C-0.02355469 7.58863281 -0.01195312 6.80617188 0 6 C-0.99 6 -1.98 6 -3 6 C-3 5.34 -3 4.68 -3 4 C-2.01 4 -1.02 4 0 4 C0 2.68 0 1.36 0 0 Z " fill="#969999" transform="translate(353,91)"/>
<path d="M0 0 C2.5 0.125 2.5 0.125 3.5 1.125 C3.54092937 3.45797433 3.54241723 5.79205225 3.5 8.125 C1.125 8.75 1.125 8.75 -1.5 9.125 C-3.5 7.125 -3.5 7.125 -3.6875 4.0625 C-3.43916756 0.17195838 -3.43916756 0.17195838 0 0 Z " fill="#FAFAFA" transform="translate(240.5,96.875)"/>
<path d="M0 0 C0.99 0 1.98 0 3 0 C3 6.27 3 12.54 3 19 C2.01 19 1.02 19 0 19 C0 12.73 0 6.46 0 0 Z " fill="#939696" transform="translate(310,90)"/>
<path d="M0 0 C0.99 0 1.98 0 3 0 C3 0.66 3 1.32 3 2 C4.65 1.67 6.3 1.34 8 1 C8 1.66 8 2.32 8 3 C7.35546875 3.22429687 6.7109375 3.44859375 6.046875 3.6796875 C3.75611148 4.82889456 3.75611148 4.82889456 3.390625 7.3828125 C3.34421875 8.28773437 3.2978125 9.19265625 3.25 10.125 C3.19328125 11.03507812 3.1365625 11.94515625 3.078125 12.8828125 C3.03945313 13.93082031 3.03945313 13.93082031 3 15 C2.01 15 1.02 15 0 15 C0 10.05 0 5.1 0 0 Z " fill="#A9ABAB" transform="translate(377,94)"/>
<path d="M0 0 C5.625 -0.25 5.625 -0.25 9 2 C8.125 5.875 8.125 5.875 7 7 C4.66702567 7.04092937 2.33294775 7.04241723 0 7 C0 4.69 0 2.38 0 0 Z " fill="#F7F7F7" transform="translate(415,63)"/>
<path d="M0 0 C0.78375 0.04125 1.5675 0.0825 2.375 0.125 C1.385 0.8984375 1.385 0.8984375 0.375 1.6875 C-2.28137543 4.92495755 -1.93842132 7.05052281 -1.625 11.125 C0.025 11.455 1.675 11.785 3.375 12.125 C3.375 12.785 3.375 13.445 3.375 14.125 C1.125 14.4375 1.125 14.4375 -1.625 14.125 C-4 12.0625 -4 12.0625 -5.625 9.125 C-5.32427243 0.25353678 -5.32427243 0.25353678 0 0 Z " fill="#9A9D9D" transform="translate(157.625,94.875)"/>
<path d="M0 0 C2.31 0.33 4.62 0.66 7 1 C7.38218767 2.65614657 7.71395102 4.32457024 8 6 C7 7 7 7 3.4375 7.0625 C2.303125 7.041875 1.16875 7.02125 0 7 C0 4.69 0 2.38 0 0 Z " fill="#FBFBFB" transform="translate(140,92)"/>
<path d="M0 0 C0 0.99 0 1.98 0 3 C-1.2065625 3.556875 -1.2065625 3.556875 -2.4375 4.125 C-5.17419466 5.70945225 -5.17419466 5.70945225 -5.5546875 8.19140625 C-5.7896735 10.46649795 -5.94727782 12.71377466 -6 15 C-6.66 15 -7.32 15 -8 15 C-8 10.38 -8 5.76 -8 1 C-6.68 1 -5.36 1 -4 1 C-2 0 -2 0 0 0 Z " fill="#9A9D9D" transform="translate(212,94)"/>
<path d="M0 0 C2.31 0 4.62 0 7 0 C7.33 1.65 7.66 3.3 8 5 C5.36 5.33 2.72 5.66 0 6 C0 4.02 0 2.04 0 0 Z " fill="#F9F9F9" transform="translate(415,53)"/>
<path d="M0 0 C0.66 0 1.32 0 2 0 C2.33 3.3 2.66 6.6 3 10 C4.65 10.33 6.3 10.66 8 11 C7.67 11.99 7.34 12.98 7 14 C4.625 14.125 4.625 14.125 2 14 C0 12 0 12 -0.1953125 9.1796875 C-0.17210937 8.08914062 -0.14890625 6.99859375 -0.125 5.875 C-0.10695313 4.77929688 -0.08890625 3.68359375 -0.0703125 2.5546875 C-0.04710937 1.71164063 -0.02390625 0.86859375 0 0 Z " fill="#999C9C" transform="translate(362,95)"/>
<path d="M0 0 C2 1 2 1 2.6328125 2.84765625 C2.79523438 3.57855469 2.95765625 4.30945313 3.125 5.0625 C3.29257813 5.79597656 3.46015625 6.52945312 3.6328125 7.28515625 C3.75398437 7.85105469 3.87515625 8.41695312 4 9 C1.69 9 -0.62 9 -3 9 C-2.01 6.03 -1.02 3.06 0 0 Z " fill="#E3E3E4" transform="translate(232,20)"/>
<path d="M0 0 C3.3 0 6.6 0 10 0 C9.67 0.66 9.34 1.32 9 2 C8.34 2 7.68 2 7 2 C7 2.66 7 3.32 7 4 C5.02 4.33 3.04 4.66 1 5 C0.67 3.35 0.34 1.7 0 0 Z " fill="#EDEDED" transform="translate(191,102)"/>
<path d="M0 0 C0.66 0 1.32 0 2 0 C2.66 2.97 3.32 5.94 4 9 C2.02 9 0.04 9 -2 9 C-1.34 6.03 -0.68 3.06 0 0 Z " fill="#E7E8E8" transform="translate(254,55)"/>
<path d="M0 0 C2 1 2 1 2.6328125 2.84765625 C2.79523438 3.57855469 2.95765625 4.30945313 3.125 5.0625 C3.29257813 5.79597656 3.46015625 6.52945312 3.6328125 7.28515625 C3.75398437 7.85105469 3.87515625 8.41695312 4 9 C1.69 9 -0.62 9 -3 9 C-2.01 6.03 -1.02 3.06 0 0 Z " fill="#EAEAEB" transform="translate(177,20)"/>
<path d="M0 0 C2 1 2 1 2.6328125 2.84765625 C2.79523438 3.57855469 2.95765625 4.30945313 3.125 5.0625 C3.29257812 5.79597656 3.46015625 6.52945312 3.6328125 7.28515625 C3.75398438 7.85105469 3.87515625 8.41695312 4 9 C2.02 9 0.04 9 -2 9 C-1.125 2.25 -1.125 2.25 0 0 Z " fill="#EBEBEB" transform="translate(274,20)"/>
<path d="M0 0 C3.3 0 6.6 0 10 0 C9.01 0.33 8.02 0.66 7 1 C6.26676204 3.01508358 6.26676204 3.01508358 6 5 C4.35 4.67 2.7 4.34 1 4 C0.67 2.68 0.34 1.36 0 0 Z " fill="#EDEEEE" transform="translate(389,102)"/>
<path d="M0 0 C0.66 1.32 1.32 2.64 2 4 C3.98 4 5.96 4 8 4 C8 3.34 8 2.68 8 2 C8.99 2 9.98 2 11 2 C9.25 5.875 9.25 5.875 7 7 C5.00039988 7.039992 2.99952758 7.04346799 1 7 C-0.0625 5.1875 -0.0625 5.1875 -1 3 C-0.67 2.01 -0.34 1.02 0 0 Z " fill="#9EA1A1" transform="translate(190,102)"/>
<path d="M0 0 C0.33 0 0.66 0 1 0 C1 3.96 1 7.92 1 12 C0.34 12 -0.32 12 -1 12 C-1.33 9.69 -1.66 7.38 -2 5 C-3.65 5 -5.3 5 -7 5 C-7 4.67 -7 4.34 -7 4 C-5.02 4 -3.04 4 -1 4 C-0.67 2.68 -0.34 1.36 0 0 Z " fill="#999C9C" transform="translate(266,97)"/>
<path d="M0 0 C2.6855594 2.6855594 3.06049974 5.37621328 4 9 C2.02 9 0.04 9 -2 9 C-1.125 2.25 -1.125 2.25 0 0 Z " fill="#EDEDED" transform="translate(298,93)"/>
<path d="M0 0 C1.32 0 2.64 0 4 0 C4.66 2.64 5.32 5.28 6 8 C3 8 3 8 1.375 6.6875 C0 5 0 5 -1 2 C-0.67 1.34 -0.34 0.68 0 0 Z " fill="#A4A6A6" transform="translate(175,95)"/>
<path d="M0 0 C0.185625 0.61875 0.37125 1.2375 0.5625 1.875 C2.71437233 5.05602866 5.37533763 5.19451947 9 6 C8.67 7.32 8.34 8.64 8 10 C7.67 9.34 7.34 8.68 7 8 C6.05125 8.04125 5.1025 8.0825 4.125 8.125 C1 8 1 8 -1 6 C-0.625 2.875 -0.625 2.875 0 0 Z " fill="#9FA2A2" transform="translate(236,100)"/>
<path d="M0 0 C0.66 0 1.32 0 2 0 C3.03115279 3.26913624 2.9638984 5.86041348 2.5625 9.25 C2.46066406 10.14203125 2.35882813 11.0340625 2.25390625 11.953125 C2.12822266 12.96632813 2.12822266 12.96632813 2 14 C1.34 14 0.68 14 0 14 C0 9.38 0 4.76 0 0 Z " fill="#939696" transform="translate(220,95)"/>
<path d="M0 0 C0.33 0.66 0.66 1.32 1 2 C1.99 1.34 2.98 0.68 4 0 C4.99 0 5.98 0 7 0 C7 0.66 7 1.32 7 2 C6.36578125 2.23460938 5.7315625 2.46921875 5.078125 2.7109375 C2.81749261 3.82290908 2.81749261 3.82290908 2.171875 6.1640625 C2.03265625 6.97617188 1.8934375 7.78828125 1.75 8.625 C1.60046875 9.44226563 1.4509375 10.25953125 1.296875 11.1015625 C1.19890625 11.72804688 1.1009375 12.35453125 1 13 C0.67 13 0.34 13 0 13 C0 8.71 0 4.42 0 0 Z " fill="#939696" transform="translate(378,95)"/>
<path d="M0 0 C1.65 0 3.3 0 5 0 C5.33 1.32 5.66 2.64 6 4 C3.69 4 1.38 4 -1 4 C-0.67 2.68 -0.34 1.36 0 0 Z " fill="#F0F0F0" transform="translate(390,97)"/>
<path d="M0 0 C1.65 0 3.3 0 5 0 C5.33 1.32 5.66 2.64 6 4 C3.69 4 1.38 4 -1 4 C-0.67 2.68 -0.34 1.36 0 0 Z " fill="#F0F0F0" transform="translate(192,97)"/>
<path d="M0 0 C-0.33 1.65 -0.66 3.3 -1 5 C-2.65 4.67 -4.3 4.34 -6 4 C-6 3.01 -6 2.02 -6 1 C-3 0 -3 0 0 0 Z " fill="#F6F6F6" transform="translate(264,102)"/>
<path d="M0 0 C0.928125 0.20625 1.85625 0.4125 2.8125 0.625 C2.4825 1.285 2.1525 1.945 1.8125 2.625 C1.008125 2.769375 0.20375 2.91375 -0.625 3.0625 C-3.53190658 3.39002717 -3.53190658 3.39002717 -5.1875 6.625 C-5.5175 4.975 -5.8475 3.325 -6.1875 1.625 C-3.1875 -0.375 -3.1875 -0.375 0 0 Z " fill="#A8AAAA" transform="translate(195.1875,94.375)"/>
<path d="M0 0 C0.5625 1.9375 0.5625 1.9375 1 4 C0 5 0 5 -2.5625 5.0625 C-3.7690625 5.0315625 -3.7690625 5.0315625 -5 5 C-5 3.66666667 -5 2.33333333 -5 1 C-3.35 0.67 -1.7 0.34 0 0 Z " fill="#F1F1F1" transform="translate(243,107)"/>
<path d="M0 0 C1.65 0 3.3 0 5 0 C5 1.32 5 2.64 5 4 C3.02 4 1.04 4 -1 4 C-0.67 2.68 -0.34 1.36 0 0 Z " fill="#F2F3F3" transform="translate(259,97)"/>
</svg>
